/* XPM */
static char *result[] = {
/* columns rows colors chars-per-pixel */
"64 64 256 2 ",
"   c #130C0E",
".  c #1A1418",
"X  c #120D0F",
"o  c #251618",
"O  c #391314",
"+  c #261D22",
"@  c #382627",
"#  c #332A2D",
"$  c #141C2E",
"%  c #4F130A",
"&  c #760405",
"*  c #690709",
"=  c #56251A",
"-  c #4F302E",
";  c #6B3C2B",
":  c #653829",
">  c #693D31",
",  c #6F352E",
"<  c #551822",
"1  c #694238",
"2  c #784637",
"3  c #75462B",
"4  c #7A6B1C",
"5  c #05134A",
"6  c #071D66",
"7  c #0F2974",
"8  c #273163",
"9  c #513A51",
"0  c #394460",
"q  c #5A4349",
"w  c #6C4644",
"e  c #794B43",
"r  c #785150",
"t  c #4D566E",
"y  c #716B78",
"u  c #785B65",
"i  c #870304",
"p  c #940203",
"a  c #9B0203",
"s  c #98090B",
"d  c #931213",
"f  c #A80507",
"g  c #B70608",
"h  c #AA0E12",
"j  c #A81418",
"k  c #B5121A",
"l  c #B80E14",
"z  c #B61B24",
"x  c #A71C20",
"c  c #9A2825",
"v  c #9A382C",
"b  c #BA2937",
"n  c #AD252D",
"m  c #9A2320",
"M  c #C80709",
"N  c #D70709",
"B  c #D11117",
"V  c #E7090B",
"C  c #EA0E12",
"Z  c #E81217",
"A  c #FD1415",
"S  c #FB171A",
"D  c #F90E0F",
"F  c #CC1B25",
"G  c #FB1C22",
"H  c #EA1A25",
"J  c #CC2833",
"K  c #FE232B",
"L  c #FA2226",
"P  c #FB2B37",
"I  c #F62E36",
"U  c #884A36",
"Y  c #914D30",
"T  c #AC5D37",
"R  c #C6693C",
"E  c #BA3445",
"W  c #F93949",
"Q  c #DB3642",
"!  c #875748",
"~  c #985949",
"^  c #8E514C",
"/  c #A65C49",
"(  c #AF4F58",
")  c #9B6A56",
"_  c #9D6A52",
"`  c #A6694C",
"'  c #A66B57",
"]  c #A9735A",
"[  c #B77858",
"{  c #B56C4D",
"}  c #B7546A",
"|  c #956F6A",
" . c #AA7769",
".. c #B77C65",
"X. c #B06F6D",
"o. c #D54754",
"O. c #F14551",
"+. c #D6795A",
"@. c #C6734E",
"#. c #C7516C",
"$. c #FD526F",
"%. c #CB736A",
"&. c #FA787C",
"*. c #F9DA15",
"=. c #FFF90A",
"-. c #F2DC25",
";. c #BA825D",
":. c #BD836B",
">. c #BA8164",
",. c #BA8775",
"<. c #CB8B5E",
"1. c #C6865B",
"2. c #D08356",
"3. c #C78769",
"4. c #CE9262",
"5. c #CF9A67",
"6. c #D39A67",
"7. c #CB8D74",
"8. c #C68B75",
"9. c #D48C74",
"0. c #CB9176",
"q. c #CD9379",
"w. c #D6947A",
"e. c #D7866B",
"r. c #EA9374",
"t. c #D6A26D",
"y. c #DAAB76",
"u. c #DEB17D",
"i. c #FDA578",
"p. c #FBAD72",
"a. c #E3A854",
"s. c #FFF947",
"d. c #FFF34F",
"f. c #F1CB5A",
"g. c #B7A11A",
"h. c #0C2B89",
"j. c #0E329B",
"k. c #12349D",
"l. c #1A389B",
"z. c #102E8C",
"x. c #223995",
"c. c #1136A4",
"v. c #1339AC",
"b. c #173AA7",
"n. c #133BB2",
"m. c #183EB6",
"M. c #0E36A8",
"N. c #203DA4",
"B. c #334799",
"V. c #1A41BB",
"C. c #1A40AF",
"Z. c #2643A9",
"A. c #2546B7",
"S. c #3651BC",
"D. c #2475B4",
"F. c #787786",
"G. c #737087",
"H. c #485AAD",
"J. c #1135C2",
"K. c #1B1ECA",
"L. c #1B45C7",
"P. c #1C4CD6",
"I. c #1D50DD",
"U. c #264CCA",
"Y. c #2E54D4",
"T. c #1E54E7",
"R. c #1854F5",
"E. c #2558E9",
"W. c #245BF2",
"Q. c #265EF9",
"!. c #3558F1",
"~. c #2B64FD",
"^. c #2D6AFF",
"/. c #2763FC",
"(. c #336BFF",
"). c #3467FD",
"_. c #3874FF",
"`. c #2F70FF",
"'. c #1F6BE8",
"]. c #4B77F9",
"[. c #495CD3",
"{. c #847A89",
"}. c #B17A89",
"|. c #8E6DB5",
" X c #CA7690",
".X c #FF668A",
"XX c #7E8393",
"oX c #2C9BE3",
"OX c #5183FF",
"+X c #678FFE",
"@X c #49F2FF",
"#X c #3C83B7",
"$X c #8B8B9C",
"%X c #858594",
"&X c #88818D",
"*X c #8B8CA3",
"=X c #8D92A5",
"-X c #9499AD",
";X c #9395A8",
":X c #999EB4",
">X c #959BB2",
",X c #988DA0",
"<X c #B29BB1",
"1X c #9DA3BA",
"2X c #A3A7BC",
"3X c #B68A90",
"4X c #D29589",
"5X c #E59C83",
"6X c #EE978F",
"7X c #D6A292",
"8X c #E6A48C",
"9X c #FEAD8A",
"0X c #FAA987",
"qX c #FFB68B",
"wX c #FFBB94",
"eX c #F1AC92",
"rX c #FFC69B",
"tX c #FFD190",
"yX c #FFDBAB",
"uX c #FFD5A6",
"iX c #FFD2A9",
"pX c #FFE7B8",
"aX c #F4EAB0",
"sX c #FFFF85",
"dX c #9DA7C0",
"fX c #A4ABC3",
"gX c #ABB2CD",
"hX c #A8B2C8",
"jX c #ADB7D4",
"kX c #B4BBD6",
"lX c #B3B8CD",
"zX c #94A7E0",
"xX c #BBC3D7",
"cX c #BCC2CF",
"vX c #BBC6E7",
"bX c #C5CBDC",
"nX c #D0CCD7",
"mX c #FFF1C5",
"MX c #CBD4E7",
"NX c #D5DBEB",
"BX c #D4DEF4",
"VX c #C7D1EE",
"CX c #DAE6F6",
"ZX c #D6E6F2",
"AX c #E4EDFB",
"SX c #E5EAF5",
"DX c #ECF3FB",
"FX c #E9F6FE",
"GX c #F1F6FC",
"HX c #F5FAFE",
"JX c #FCFEFF",
"KX c #F1F3F7",
"LX c #EEEFEA",
"PX c #F3D8D3",
"IX c #E5ADC5",
"UX c None",
/* pixels */
"UXUXUXUXUXUXUXUXUXUXDXJXJXJXHXJXHXGXUXUXUXUXUXUXUXUXUXUXUXUXUXUXUXUXUXUXUXUXUXUXUXUXUXUXUXUXUXUXUXUXUXUXUXUXUXUXUXUXUXUXUXUXUXUX",
"UXUXUXUXUXUXUXHXJXJXJXHXDXHXGXDXHXSXCXBXUXUXUXUXUXUXUXUXUXUXUXUXUXUXUXUXUXUXUXUXUX$.O.W $..XUXUXUXUXUXUXUXUXUXUXUXUXUXUXUXUXUXUX",
"UXUXUXUXUXJXJXJXJXHXHXJXHXHXGXDXVXMXkXMXvXUXUXUXUXUXUXUXUXUXUXUXUXUXUXUX.XO.P P K K L L S G G G P W UXUXUXUXUXUXUXUXUXUXUXUXUXUX",
"UXUXUXAXJXJXJXJXSXSXSXSXSXBXMXZXvXkX2XhXgXvXUXUXUXUXUXUXUXUXUXUXUXUX$.P K K K L S &.6XG S S A A A G H I $.UXUXUXUXUXUXUXUXUXUXUX",
"UXUXHXJXJXJXJXJXJXJXHXMXlXxX2X1XhXgXkX-XdX>XJXJXAXBXUXUXUXUXUXUX$.P P G S L bXJXJXO.HXJXJXKXSXS D D Z Z H Q UXUXUXUXUXUXUXUXUXUX",
"UXAXHXHXHXHXHXFXDXDXCXvXSXxXXX:XfXfXgXt JXHXHXSXNXVX<XUXUXUX.XW P K S G A JXGXO.O.o.o.AXO.o.FXAXD C D Z B H Q o.UXUXUXUXUXUXUXUX",
"UXJXJXJXJXNXMXNXMXbXMXkXjXgXgXF.>XfX:X=XDXAXZXMXkX<X}.UXUX$.W K S S D A ZX#.Q O.HX%.o.O.3XO.CXCXBXV Z N V N F J o.UXUXUXUXUXUXUX",
"DXJXJXJXJXJXJXHXSXXX-X>XfXfXgXfX%X*X# XXcXcXhX2X,X| UXUX$.W P D C D D V 4X%.J DXDXGXGXHXo.o...ZXVXZ V N N B B F J #.UXUXUXUXUXUX",
"AXFXFXFXFXDXAXAXCXxXgXF.;X1X1X;Xt y y y y %X&Xu G.UXUX$.W H V W W K G D D bXnXnXNXLXLXNXJ o.b CXa N N N N M M B k J  XUXUXUXUXUX",
"BXbXxXxXcXxXcXlXhX2XgXhXy %X%XF.F.%X=X=X=X=X$Xy y I n c m c g C A G P W P P P P I G lXcXF 2XZXa N N N M M M g l l z b UXUXUXUXUX",
"UXcX1X-X=X$X=X=X-X-X1X2X*XXX$X*X=X;X-X-X=X$X,.XXUXc c m m c m m c v c j N A G W P P L G G M N M M M M M M l g M l k z #.UXUXUXUX",
"UXUXlX1X-X-X=XXX=X=X=X%X*X-X-X-X:X-X;X$X&Xy t zXUXUXUXc d / o + + o   ! ! ! v f N S L K H S C N M M M g B g g B l l z b UXUXUXUX",
"UXUXUX1X-X>X>X-X-X;X-X>X:X:X:X:X-X,X$X&Xy F.G.G.UXUXUX^ PXu 4Xq.9.8.+ o [ ] ' _ _ ! s N S H H Z Z N g g l g g f g l k z #.UXUXUX",
"UXUXUXUX1X-X-X>X:X1X:X1X1X:X:X-X*X$X%X=X=X&Xy UXUXJXpXv yX5Xw.[ G.e.9.o 3.......] ' _ ! ; f H H H F B f f f f g h h h k E UXUXUX",
"UXUXUXUXUXhX-X;X;X;X-X-X-X-X,X$X&X-X:X-X$X{.% UXUXr.~ mXyXrXHXzX#X#XD.4Xq.9.3.8.>.] X X X X   p B J F F p s f f f h l k z UXUXUX",
"UXUXUXUXUXUXUX1X;X=X$X$X$X%XF.-X2X:X;X$Xy * * % rXv LXiXuXJXFXoX0 FX0 8Xw.w.9.7.! 3.:.....]       f z J F p s s f g h j z } UXUX",
"UXUXUXUXUXUXUXUXfXdXdX1XdXfX2X:X;X$XF.& & & * % 3X7XaXyX0XJXoXt !.B.uXuXuXr.9.7.[ y ;X,Xy  .>.]   2 ! d b n f p s h h j k n #.UX",
"UXUXUXUXUXUXUXUXUXUX>X-X=X=X%Xy & p i p i & * - @ yXiXyXPXpXyXyX@X@XyXyXrX9Xi.[ hXcXD.#X8 D.:.>.> ) _ ! 2 j b p s s s h k n b 4X",
"UXUXUXUXUXUXUXUXUXUXUXUX( p p a p p p i i & 9 q # @ mXmXpXmXpXpXyXrXrXiXwXi.3.JXJXD.0 0 t $ ] 7.:.:...] ] ! O d s s d h j x n } ",
"UXUXUXUXUXUXUXUXUXUXUXUXUXn a a a f p p i & # - q pXpXpXpXmXpXpXyXuXrXwX9X9.$XJXJXD.6 K.$ oX0.q.q.0.q.0.>.O % % d d d d j x n ( ",
"UXUXUXUXUXUXUXUXUXUXUXUXUXUXh a a a p p i ^ # - - yXyXpXyXyXuXrXrXrXrXwXwX8X&XLXLXJ.oX@XoX..w.w.w.y.w.q.% = < : @ d d d d c n UX",
"UXUXUXUXUXUXUXUXUXUXUXUXUXUXUXf a f a p s PXuX9 # rXrXrXrXrXrXrXrXwXwXeX8X8X3.rXnXnXbXnX0X0X8Xw.w.4X6.= = = > > :.0.4X5X* } UXUX",
"UXUXUXUXUXUXUXUXUXUXUXUXUXUXUXo.f a a a s * iXu # X 9XqXqX9X0X0X0X0X5X5X5X4X. %.9.qXqXqXwX- wXwX8X5X% % = = ..3.[ ] { 7.8XUXUXUX",
"UXUXUXUXUXUXUXUXUXUXUXUXUXUXUXUXF g a p a i yXrXrX5X# 6X7.7.7.7.0.8.0.0.0.X . . . . - # # + 9X9XeX8X3 % : [ ] ` ..7.%.' 4XUXUXUX",
"UXUXUXUXUXUXUXUXUXUXUXUXUXUXUXUXUXB M p p p & iXwXqXU + . X |  X,.8.@ X . . . . . . + + + + w.r.6X8X= = ) 3.%.%.` 9.3.3.8XUXUXUX",
"UXUXUXUXUXUXUXUXUXUXUXUXUXUXUXUXUXO.M M f p i yXwXwX[ % 7XX.. . . . . . . . . . . . . . - 9.w.r.5X8XeX7.r.7.3.] 9.w.7.8XUXUXUXUX",
"UXUXUXUXUXUXUXUXUXUXUXUXUXUXUXUXUXUXV N g f i * rXwX9X% , 3XfX>X|  . . .) o - ..:.3.7.9.7.w.w.w.w.eX..3.4Xw.w.w.9.7.UXUXUXUXUXUX",
"UXUXUXUXUXUXUXUXUXUXUXUXUXUXUXUXUXUXZ V N p p Y.n.9XrX+.}. X, < < O O 8.0.0.0.q.q.q.0.q.7.q.w.w.7X= - ' ....3.UXUXUXUXUXUXUXUXUX",
"UXUXUXUXUXUXUXUXUXUXUXUXUXUXUXUXUXUXUXA G /.^.).Q.5 9XwXqX{ X.^ , ' q.q.0.q.q.0.0.0.0.7.8.7.4X,.O % = q UXUXUXUXUXUXUXUXUXUXUXUX",
"UXUXUXUXUXUXUXUXUXUXUXUXUXUXUXUXUXUXUXD `.`.(.E.% A A 0X9.i.i.w.4X8.8.8.8.,.,.:.:.3.:.:.%.7 UX@ @ @ UXUXUXUXUXUXUXUXUXUXUXUXUXUX",
"UXUXUXUXUXUXUXUXUXUXUXUXUXUXUXUXUXUXaX-.^.].j.C A A S S & %.%.:......... . . .| 6 z.z.& s i < UXUXUXUXUXUXUXUXUXUXUXUXUXUXUXUXUX",
"UXUXUXUXUXUXUXUXUXUXUXUXUXUXUXUXsXs.s.*.`.6 ^.^.[.S A A S A A f s i k.c.c.c.c.v.b.p f f f f f j b UXUXUXUXUXUXUXUXUXUXUXUXUXUXUX",
"UXUXUXUXUXUXUXUXUXUXUXUXUXUXUXUXd.s.-._.z.(.(.(.Q.~.).~.!.H D A D Q.E.W.P.V.V.m.f f f g f g g g g g E UXUXUXUXUXUXUXUXUXUXUXUXUX",
"UXUXUXUXUXUXUXUXUXUXUXUXUXUXUX+Xy R.).h.^.(.`.(.(.].).~.).~.~.W.Q.W.E.I.E.W.W.a f f f g f g f g g f g k E UXUXUXUXUXUXUXUXUXUXUX",
"UXUXUXUXUXUXUXUXUXUXUXUXUXUXUXOXU.C.).(.~.(./.~.(.).Q.).~.W.W.R.=.=.=.*.T.E.b.f N M JXJXJXHXJXVX} f g g l l b UXUXUXUXUXUXUXUXUX",
"UXUXUXUXUXUXUXUXUXUXUXUXUXUX+X(.].(.).^.~.^.)./.~.).).).).W.).s.s.s.d.f.a.P.v.a JXJXJXJXKXCXSXGXDXJXHXJXjXBXz b UXUXUXUXUXUXUXUX",
"UXUXUXUXUXUXUXUXUXUXUXUXUXUX].Q._.(.(.~./././.^.).Q.W.W.E.U.E.*.-.-.-.g.g.h.j.nXJXJXSXKXJXJXCXbXJXJXJXJXJXJXFX4X#.UXUXUXUXUXUXUX",
"UXUXUXUXUXUXUXUXUXUXUXUXUXUX].].(.~.).~./././.W.W.E.T.I.I.I.P.E.I.1 4 j.C.j.7 HXHXSXxXJXJXJXJXJXJXJXJXJXJXHXAXFXCXUXUXUXUXUXUXUX",
"UXUXUXUXUXUXUXUX6X5Xr.+.+.+.+.+.|././.E.R.T.OX].`._.~.).~.~.W.!.Y.h.z.j.j.j.7 CXDXbX;XAXSXDXFXGXGXHXDXHXFXAXCXVXBXUXUXUXUXUXUXUX",
"UXUXUXUXUXIX%.%.%.+.+.+.+.@.@.R R R / L.OXOX`._.`.`.(.(.^././.W.E.I.L.M.C.h.7 6 5 ZXJXJXJXXXcXxXBXNXCXCXCXBXvXvXVXvXUXUXUXUXUXUX",
"UXUXUXUX4XX.{ X.3.4X7X4X1.@.@.R R / / / ]._.(.^.`.^.^./././.~.W.T.Y.U.C.z.7 7 6 6 ZXDXJXGXGXHXJXHXJXFXAXZXVXvXvXvXjXUXUXUXUXUXUX",
"UXUXUX}.X.^ / / ` ] 4X,.X.[ { / / { / ~ ~ [.~.^.^.^.^.^./././.T.T.I.P.L.C.z.7 6 6 xXMXMXMXZXSXAXDXFXGXFXCXvXjXvXvXUXUXUXUXUXUXUX",
"UXUX3X .mXyXuXtXp.p.Y Y ~ ' ^ ~ / / / ~ ^ r m.W.~./././././.W.I.I.L.L.Y.A.C.z.5 5 HXJXKXG.1XhXxXxXxXMXMXVXkXkXjXdXUXUXUXUXUXUXUX",
"UXUX;.4.4.4.4.4.<.;.tXp.a.v U U U ^ ^ ~ ! ^ r U.E.Q./.Q.R.W.T.P.L.V.V.U.V.C.Z.7 8 NXSXDXGXGXGXFXGXCXvXxXhXjXjXjXUXUXUXUXUXUXUXUX",
"UXUX<.4.6.t.t.6.t.4.4.2.p.p.+.U 2 U ! ! ^ ! r r P.E.W.T.T.T.I.L.L.V.L.V.L.n.C.l.7 GX=XhXcXbXMXNXZXNXNXvXgXhXgXUXUXUXUXUXUXUXUXUX",
"UXUX<.4.6.w.y.y.y.y.t.6.<.@.p.6.3 , ; 2 e e ^ r L.P.!.T.I.I.L.L.A.A.V.V.V.V.Z.k.7 CXCXFXGXhX-X-X1X2X2X2XfXhXUXUXUXUXUXUXUXUXUXUX",
"UXUXUX<.4.t.t.u.u.u.y.t.5.4.<.2.e.3 > , , ! e e 2 L.Y.P.Y.L.U.V.V.C.V.V.V.V.C.l.z.8 1XcXxXMXxXMXMXxXdXfXUXUXUXUXUXUXUXUXUXUXUXUX",
"UXUXUXUX<.4.6.t.y.y.y.y.t.4.4.<.@.>.; 3 , e , e e L.U.P.L.U.L.A.Z.C.C.n.M.M.v.l.z.B.UXUXUXUXUX-X-X1XUXUXUXUXUXUXUXUXUXUXUXUXUXUX",
"UXUXUXUXUX1.<.4.5.6.t.t.5.5.<.;.1.[ [ : ; 3 2 2 e 9 U.Y.L.V.S.H.b.N.N.b.b.N.N.x.H.UXU.|.G.G.:XUXUXUXUXUXUXUXUXUXUXUXUXUXUXUXUXUX",
"UXUXUXUXUXUX] ;.;.>.>.>.;.;.;.;.;.;.;.! : ; 2 2 2 e V.L.U.S.H.B.x.x.B.l.N.B.v.m.m.m.z.j.n.> w r *X,.UXUXUXUXUXUXUXUXUXUXUXUXUXUX",
"UXUXUXUXUXUXUXUX) ] ) ] ] ) ) ] ' ) ] ~ - : > 3 2 e 9 U.S.H.z.j.k.k.k.M.c.b.v.n.m.b.X j.v.= : w r ~ UXUXUXUXUXUXUXUXUXUXUXUXUXUX",
"UXUXUXUXUXUXUXUXUX9XqX9XqX9X9Xi.i.i.p.p.] : : ; 3 , e n.A.k.j.C.c.k.c.c.M.v.v.n.n.b.6 k.b.x.w w w u ] UXUXUXUXUXUXUXUXUXUXUXUXUX",
"UXUXUXUXUXUXUXUXUXUX1.4.4.4.4.4.4.<.<.<.;.` : 1 , 2 e Z.k.j.j.j.c.c.c.b.M.v.v.n.n.v.z.M.M.L.1 w 1 q ] UXUXUXUXUXUXUXUXUXUXUXUXUX",
"UXUXUXUXUXUXUXUXUXUX{ <.4.4.5.5.t.5.4.<.1.;.- : 1 2 r A.A.V.M.j.c.c.c.M.v.v.n.n.n.n.c.v.v.V.> > : 1 ] UXUXUXUXUXUXUXUXUXUXUXUXUX",
"UXUXUXUXUXUXUXUXUXUXUXUX<.4.5.y.y.y.t.4.<.{ ] : > e UXUXZ.A.C.C.c.c.b.v.v.v.v.n.n.n.v.v.n.J.; ; > r ] UXUXUXUXUXUXUXUXUXUXUXUXUX",
"UXUXUXUXUXUXUXUXUXUXUXUXUX[ 3.5.t.t.t.5.4.@.,.w u UXUXUXUXUXZ.Z.m.c.c.b.M.v.v.n.M.n.n.v.n.q ; ; ; U UXUXUXUXUXUXUXUXUXUXUXUXUXUX",
"UXUXUXUXUXUXUXUXUXUXUXUXUXUXUX1.3.<.4.<.1.` UXUXUXUXUXUXUXUXUXUXZ.b.b.c.c.M.b.v.C.M.C.C.C.: ; ; 3 _ UXUXUXUXUXUXUXUXUXUXUXUXUXUX",
"UXUXUXUXUXUXUXUXUXUXUXUXUXUXUXUXUXUXUXUXUXUXUXUXUXUXUXUXUXUXUXUXUXUXN.b.c.c.c.M.M.c.M.M.: : ; ; > ` UXUXUXUXUXUXUXUXUXUXUXUXUXUX",
"UXUXUXUXUXUXUXUXUXUXUXUXUXUXUXUXUXUXUXUXUXUXUXUXUXUXUXUXUXUXUXUXUXUXUXB.B.l.l.b.l.k.l.: : ; ; 3 : ` UXUXUXUXUXUXUXUXUXUXUXUXUXUX",
"UXUXUXUXUXUXUXUXUXUXUXUXUXUXUXUXUXUXUXUXUXUXUXUXUXUXUXUXUXUXUXUXUXUXUXUXUXl.l.k.: : ; ; 3 : ; ; 1 ` UXUXUXUXUXUXUXUXUXUXUXUXUXUX",
"UXUXUXUXUXUXUXUXUXUXUXUXUXUXUXUXUXUXUXUXUXUXUXUXUXUXUXUXUXUXUXUXUXUXUXUXUX/ T Y Y Y 3 ; : : : 3 : ` UXUXUXUXUXUXUXUXUXUXUXUXUXUX",
"UXUXUXUXUXUXUXUXUXUXUXUXUXUXUXUXUXUXUXUXUXUXUXUXUXUXUXUXUXUXUXUXUXUXUXUXUX .T Y Y Y Y 3 3 : 3 1 q _ UXUXUXUXUXUXUXUXUXUXUXUXUXUX",
"UXUXUXUXUXUXUXUXUXUXUXUXUXUXUXUXUXUXUXUXUXUXUXUXUXUXUXUXUXUXUXUXUXUXUXUXUXUX| Y Y U 3 3 : ; 3 - | UXUXUXUXUXUXUXUXUXUXUXUXUXUXUX",
"UXUXUXUXUXUXUXUXUXUXUXUXUXUXUXUXUXUXUXUXUXUXUXUXUXUXUXUXUXUXUXUXUXUXUXUXUXUXUXUXu 2 1 1 1 1 UXUXUXUXUXUXUXUXUXUXUXUXUXUXUXUXUXUX"
};
