/* XPM */
static char *result[] = {
/* columns rows colors chars-per-pixel */
"64 64 234 2 ",
"   c #2C1802",
".  c #331902",
"X  c #3A1D03",
"o  c #3A1F08",
"O  c #3D2206",
"+  c #422405",
"@  c #422A04",
"#  c #4C2E05",
"$  c #4C2703",
"%  c #532B03",
"&  c #532905",
"*  c #4C3307",
"=  c #553305",
"-  c #5D3403",
";  c #5E3906",
":  c #553909",
">  c #5B3A0A",
",  c #5A3509",
"<  c #573C14",
"1  c #643D03",
"2  c #643E0A",
"3  c #693B02",
"4  c #5E410E",
"5  c #6D4303",
"6  c #62440D",
"7  c #6B450A",
"8  c #6C490D",
"9  c #734503",
"0  c #754903",
"q  c #7B4C02",
"w  c #734C0E",
"e  c #7A4805",
"r  c #7E550E",
"t  c #795008",
"y  c #644612",
"u  c #6E4D11",
"i  c #6A4B19",
"p  c #714D11",
"a  c #704D1A",
"s  c #745212",
"d  c #7B5413",
"f  c #7B5516",
"g  c #5E4C2E",
"h  c #6F572A",
"j  c #835303",
"k  c #8A5503",
"l  c #8B5906",
"z  c #83550A",
"x  c #8B580C",
"c  c #925D08",
"v  c #825913",
"b  c #8A5E13",
"n  c #8C620A",
"m  c #9B6404",
"M  c #95640B",
"N  c #9C6A0D",
"B  c #99630A",
"V  c #8A6114",
"C  c #8A6717",
"Z  c #956A16",
"A  c #946B1A",
"S  c #996E1C",
"D  c #966615",
"F  c #9C731D",
"G  c #997918",
"H  c #A36C0C",
"J  c #A46804",
"K  c #A5720C",
"L  c #AB750B",
"P  c #AD790C",
"I  c #A97005",
"U  c #B47E0C",
"Y  c #BB7E0C",
"T  c #A3741D",
"R  c #A97716",
"E  c #B47C15",
"W  c #8B6C28",
"Q  c #AA7E22",
"!  c #A07E37",
"~  c #9F8018",
"^  c #BC830C",
"/  c #BA8208",
"(  c #BC8414",
")  c #BA931C",
"_  c #AC8223",
"`  c #A68622",
"'  c #BA8524",
"]  c #B88727",
"[  c #BA8A31",
"{  c #B89535",
"}  c #C1850E",
"|  c #C68C0E",
" . c #C88D0E",
".. c #C98D04",
"X. c #CD920E",
"o. c #CF9E0D",
"O. c #D2950E",
"+. c #D6990E",
"@. c #DB9C0E",
"#. c #C58C12",
"$. c #C98E12",
"%. c #C48A16",
"&. c #C79012",
"*. c #CC9213",
"=. c #CC951A",
"-. c #D29613",
";. c #D59913",
":. c #D99B13",
">. c #D29619",
",. c #D59A1B",
"<. c #D99D1C",
"1. c #E09F10",
"2. c #DEA10E",
"3. c #DFA114",
"4. c #DDA11E",
"5. c #E3A50E",
"6. c #E5A80F",
"7. c #E4A512",
"8. c #E5A914",
"9. c #E3A51B",
"0. c #E6A91C",
"q. c #EAAC1C",
"w. c #ECAC17",
"e. c #EEB21D",
"r. c #EDB017",
"t. c #F0B31E",
"y. c #C38E2C",
"u. c #C99728",
"i. c #D69C23",
"p. c #DB9D22",
"a. c #D69A29",
"s. c #CA9632",
"d. c #C79A33",
"f. c #D08F28",
"g. c #DCA225",
"h. c #DBA52A",
"j. c #DBAB2D",
"k. c #D9A629",
"l. c #DBB42B",
"z. c #DCAC33",
"x. c #DEAE39",
"c. c #D3AD3D",
"v. c #DEB134",
"b. c #DFB13A",
"n. c #DFBA36",
"m. c #E2A523",
"M. c #E5AA22",
"N. c #EAAB23",
"B. c #E4A629",
"V. c #E1AE2D",
"C. c #EEB222",
"Z. c #E3B22C",
"A. c #EFBA2B",
"S. c #E6B629",
"D. c #F1B423",
"F. c #F1BA26",
"G. c #F2B82B",
"H. c #E1AE34",
"J. c #E1AE39",
"K. c #E3B235",
"L. c #EAB532",
"P. c #ECB933",
"I. c #E5B43A",
"U. c #E9B63B",
"Y. c #E9B83B",
"T. c #E6B83E",
"R. c #F0BA33",
"E. c #F3CB1C",
"W. c #FCE91C",
"Q. c #F4C928",
"!. c #E6C53A",
"~. c #F9D53E",
"^. c #F7D839",
"/. c #FACB35",
"(. c #FCE939",
"). c #FBEC29",
"_. c #BFA85F",
"`. c #A59050",
"'. c #C29D52",
"]. c #C39E44",
"[. c #D9AC48",
"{. c #D9B643",
"}. c #D7B058",
"|. c #E0AD41",
" X c #E2B641",
".X c #E3B945",
"XX c #E3BB4A",
"oX c #E8BA40",
"OX c #E4BE52",
"+X c #D2B471",
"@X c #DDC34B",
"#X c #E7CB47",
"$X c #F4C948",
"%X c #EAD046",
"&X c #F6DA49",
"*X c #F3C552",
"=X c #F0C458",
"-X c #E9D757",
";X c #F7DB53",
":X c #E4CE53",
">X c #FDEC4C",
",X c #FDF44B",
"<X c #FEF241",
"1X c #FDE752",
"2X c #FEF454",
"3X c #FEF659",
"4X c #EDE15E",
"5X c #E8CE6E",
"6X c #EEEA69",
"7X c #FEE767",
"8X c #FEFC65",
"9X c #FEFA6D",
"0X c #FFF666",
"qX c #FDFD7C",
"wX c #FDFE75",
"eX c #DAC487",
"rX c #FEFC83",
"tX c #FEFC89",
"yX c #F8EA93",
"uX c #FFFE94",
"iX c #FDF999",
"pX c #F6E68D",
"aX c #CDC3A5",
"sX c #F6EEA5",
"dX c #FEFEAC",
"fX c #FBFAA7",
"gX c #FEFEBC",
"hX c #FEFDB3",
"jX c #EFEEA6",
"kX c #EBDB8B",
"lX c #FFFDC4",
"zX c #FEFECC",
"xX c #FFFED5",
"cX c None",
/* pixels */
"cXcXcXcXcXcXcXcXcXcXcXcXcXcXcXcXcXcXcXcXcXcXcXcXcXcXcXcXcXcXcXcXcXcXcXcXcXcXcXcXcXcXcXcXcXcXcXcXcXcXcXcXcXcXcXcXcXcXcXcXcXcXcXcX",
"cXcXcXcXcXcXcXcXcXcXcXcXcXcXcXcXcXcXcXcXcXcXcXcXcXcXcXcXcXcXcXcXcXcXcXcXcXcXcXcXcXcXcXcXcXcXcXcXcXcXcXcXcXcXcXcXcXcXcXcXcXcXcXcX",
"cXcXcXcXcXcXcXcXcXcXcXcXcXcXcXcXcXcXcXcXcXcXcXcXcXcXcXcXcXcXcXcXcXcXcXcXcXcXcXcXcXcXcXcXcXcXcXcXcXcXcXcXcXcXcXcXcXcXcXcXcXcXcXcX",
"cXcXcXcXcXcXcXcXcXcXcXcXcXcXcXcXcXcXcXcXcXcXcXcXcXcXcXcXcXcXcXcXcXcXcXcXcXcXcXcXcXcXcXcXcXcXcXcXcXcXcXcXcXcXcXcXcXcXcXcXcXcXcXcX",
"cXcXcXcXcXcXcXcXcXcXcXcXcXcXcXcXcXcXcXcXcXcXeXz.K.V.l.K.l.K.K.Q.E.E.E.Q.!.cXcXcXcXcXcXcXcXcXcXcXcXcXcXcXcXcXcXcXcXcXcXcXcXcXcXcX",
"cXcXcXcXcXcXcXcXcXcXcXcXcXcXcXcXcXcXcXcX+Xa.>.,.,.,.;.-.,.:.n.!.!.^.~.~.^.&X&XkXcXcXcXcXcXcXcXcXcXcXcXcXcXcXcXcXcXcXcXcXcXcXcXcX",
"cXcXcXcXcXcXcXcXcXcXcXcXcXcXcXcXcXcXcXf.<.p.i.,.,.:.>.;.-.-.;.>.#X!.%X;X1X;X&X1X&XcXcXcXcXcXcXcXcXcXcXcXcXcXcXcXcXcXcXcXcXcXcXcX",
"cXcXcXcXcXcXcXcXcXcXcXcXcXcXcXcXcXcXu.g.p.,.,.,.,.>.;.>.-.-.o.*.-.*.#X%X1X1X1X>X>X>XyXcXcXcXcXcXcXcXcXcXcXcXcXcXcXcXcXcXcXcXcXcX",
"cXcXcXcXcXcXcXcXcXcXcXcXcXcXcXcXcXh.g.p.p.,.,.,.,.;.-.>.-.-.-.>.*.O.X.:X:X3X2X3X,X,X,X4XcXcXcXcXcXcXcXcXcXcXcXcXcXcXcXcXcXcXcXcX",
"cXcXcXcXcXcXcXcXcXcXcXcXcXcXcXcXB.m.p.p.p.i.,.,.,.;.-.o.*.-.X.-.*.*.O.O.-X-X0X8X8X8X3X3X6XcXcXcXcXcXcXcXcXcXcXcXcXcXcXcXcXcXcXcX",
"cXcXcXcXcXcXcXcXcXcXcXcXcXcXcXB.M.g.g.<.<.,.;.>.@XyX5Xi.*.*.*.*.*.*.$.-.-.-X4XqXrXqXwXwX0XcXcXcXcXcXcXcXcXcXcXcXcXcXcXcXcXcXcXcX",
"cXcXcXcXcXcXcXcXcXcXcXcXcXcXp.M.m.g.4.4.<.5XsXsXjX].F pXm J *.*.*.*.$.$.*.=.-XtXuXuXuXtXrXrXcXcXcXcXcXcXcXcXcXcXcXcXcXcXcXcXcXcX",
"cXcXcXcXcXcXcXcXcXcXcXcXcX'.N.M.M.4.4.4.6XpXR ( ] ' ( E R x B I *.*.$.-.$.>.;X-XdXdXdXdXfXiXiXcXcXcXcXcXcXcXcXcXcXcXcXcXcXcXcXcX",
"cXcXcXcXcXcXcXcXcXcXcXcXcXN.N.M.9.9.:.] *XP [ a.u.=.=.f.%.( R z J *.*.$.$.$.$.:X:XlXlXlXgXhXdXjXcXcXcXcXcXcXcXcXcXcXcXcXcXcXcXcX",
"cXcXcXcXcXcXcXcXcXcXcXcXf.C.M.M.M.9.q c U a.a.a.a.<.>.>.>.$.#.U c H *.*.*.>.$.=.@XzXxXxXzXzXlXgXcXcXcXcXcXcXcXcXcXcXcXcXcXcXcXcX",
"cXcXcXcXcXcXcXcXcXcXcXcXC.N.N.0.9.0 9 E a.B.B.m.p.p.,.,.,.>.>.#.E l J *.*.$.X.$.{.{.xXxXxXxXzXlXfXcXcXcXcXcXcXcXcXcXcXcXcXcXcXcX",
"cXcXcXcXcXcXcXcXcXcXcX'.D.N.N.w.e 5 B a.B.B.B.B.i.a.{ [.5Xo.;.-.$.Y j f.$.=.$.>.*.c.zXzXzXzXlXlXgXcXcXcXcXcXcXcXcXcXcXcXcXcXcXcX",
"cXcXcXcXcXcXcXcXcXcXcXL.D.D.w.w.0 B *.N.N.N.N.' ` # ; 5 v / ,.,.>.} E j *.$.$.$.*.d.d.gXgXgXgXhXhXyXcXcXcXcXcXcXcXcXcXcXcXcXcXcX",
"cXcXcXcXcXcXcXcXcXcXcXD.D.t.w.q 5 / M.M.0.N.N.( 1 - - z c #.;.+.-.-.%.H J *.*.$.*.%.[ fXdXdXfXiXiXiXcXcXcXcXcXcXcXcXcXcXcXcXcXcX",
"cXcXcXcXcXcXcXcXcXcX'.D.D.q.w.e x ;.0.0.q.M.0.^ 5 ; - n M =.:.:.:.-.*.( c *.*.$.&.*.y.rXtXtXtXrXqXqXjXcXcXcXcXcXcXcXcXcXcXcXcXcX",
"cXcXcXcXcXcXcXcXcXcXG.D.e.e.K 0 P 9.6.6.8.q.9.} 5 1 ; n N <.:.+.;.-.-.#.R J $.$.&.&.T R 7X7X7X7X7X3X1XcXcXcXcXcXcXcXcXcXcXcXcXcX",
"cXcXcXcXcXcXcXcXcXcXD.D.t.e.z z O.7.7.5.7.7.9.} 9 1 1 M H 4.+.@.+.;.-.-.%.c $.$.&.&.=.D =X=X=X*X*X$X$XcXcXcXcXcXcXcXcXcXcXcXcXcX",
"cXcXcXcXcXcXcXcXcXcXF.t.t.r.k t 1.5.5.5.5.5.3.} 0 5 1 N I ;.+.+.+.;.-.O.#.L $.*.&.&.#.b |.|.|.|.J.J.J.cXcXcXcXcXcXcXcXcXcXcXcXcX",
"cXcXcXcXcXcXcXcXcXcXF.t.t.M.z E 5.5.5.5.2.1.1.%.0 5 3 N L ;.+.+.:.+.-.*.$.Y M &. .#.#.0 9 s.s.s.s.s.f.d.cXcXcXcXcXcXcXcXcXcXcXcX",
"cXcXcXcXcXcXcXcXcX].D.D.t.B b  .7.6.6.5.2.2.@.| 9 9 3 N L :.+.+.+.:.;.-.*.} B $.&. . .5 7 ] ] ] ' Q ' ' cXcXcXcXcXcXcXcXcXcXcXcX",
"cXcXcXcXcXcXcXcXcXG.D.t.e.N j ;.7.7.5.5.5.@.1.} 0 9 7 K P +.+.+.+.+.;.-.-. .P *.| &.| ' : T T T T T T T cXcXcXcXcXcXcXcXcXcXcXcX",
"cXcXcXcXcXcXcXcXcXC.D.t.t.N j 2.7.7.7.5.7.:.@.} q 9 9 K P @.+.+.+.+.-.+.-.$.Y U | X.| ^ * S A S D D D S cXcXcXcXcXcXcXcXcXcXcXcX",
"cXcXcXcXcXcXcXcXcXt.D.D.q.N z 3.q.q.9.7.7.:.@.#.q 9 9 K U +.+.+.+.:.+.;.O.-.} m &.| | ..@ A V b V V V C cXcXcXcXcXcXcXcXcXcXcXcX",
"cXcXcXcXcXcXcXcXcXD.D.e.q.H l 7.M.N.9.m.9.:.@.} q 0 e I U +.+.;.+.-.-.o.O.*. .H | | X.| + > v f v v d v cXcXcXcXcXcXcXcXcXcXcXcX",
"cXcXcXcXcXcXcXcXcXF.D.C.q.K l 9.N.V.V.m.9.m.:.} q 0 e K U O.;.+.+.+.+.+.O.O.#.P | |  .| # * r r r d w d h cXcXcXcXcXcXcXcXcXcXcX",
"cXcXcXcXcXcXcXcXcXD.C.D.r.K H 9.Z.Z.Z.Z.j.m.g.} q q 9 K / -.:.:.;.;.+.+.-.X. .Y |  . .#.2 > 8 p u u w u h cXcXcXcXcXcXcXcXcXcXcX",
"cXcXcXcXcXcXcXcXcXD.D.e.r.R H 9.K.z.z.v.z.l.V.^ q 0 0 K / ,.:.,.:.:.-.+.+.X.*.^ | X.#. .O o 6 6 4 6 6 6 y cXcXcXcXcXcXcXcXcXcXcX",
"cXcXcXcXcXcXcXcXcXD.D.D.q.P B 9.z.K.x.v.z.z.z.^ q q 0 K Y :.<.<.:.;.-.-.O.O.X.}  .$.$.$..   y y 6 y y 2 y cXcXcXcXcXcXcXcXcXcXcX",
"cXcXcXcXcXcXcXcXcXN.D.q.C./ k 9.V.H.x.x.b.x.z.} q q e K U <.<.<.<.<.:.;.;.-.X.} *.*.X.$.. . v v v f s a a cXcXcXcXcXcXcXcXcXcXcX",
"cXcXcXcXcXcXcXcXcXt.D.D.C.( c :.K.K.x.b.b.x.x.Y q q q K U <.p.p.p.<.,.>.;.;.O.} *.*.*.*.X . v v f d s u a cXcXcXcXcXcXcXcXcXcXcX",
"cXcXcXcXcXcXcXcXcXA.D.D.C.$.c @.K.x.x.x.x.x.x.^ q q e K Y <.g.m.p.<.p.<.,.:.-.} >.*.>.*.+ X p p 8 u y y i cXcXcXcXcXcXcXcXcXcXcX",
"cXcXcXcXcXcXcXcXcX_ D.D.D.=.c +.K.v.v.x.x.x.x.^ q q q L U 4.j.k.h.p.<.p.<.>.>.$.-.>.>.>.+ X 6 < > > 4 4 < cXcXcXcXcXcXcXcXcXcXcX",
"cXcXcXcXcXcXcXcXcXcXF.F.D.o.( +.K.K.x.b.b.x.x.^ q q q K U p.j.j.h.h.p.p.p.p.<.%.,.,.>.>.O O : : : : : : g cXcXcXcXcXcXcXcXcXcXcX",
"cXcXcXcXcXcXcXcXcXcXD.F.F.F.:.| K.K.x.x.b.x.z./ q q q L U h.z.h.j.j.h.g.m.a.,.%.,.p.,.i.+ + * * * * * * cXcXcXcXcXcXcXcXcXcXcXcX",
"cXcXcXcXcXcXcXcXcXcXF.F.F.A.0.I M.K.x.x.b.v.b./ j j q K E j.z.j.j.j.h.B.g.a.p.Y ,.,.i.a.+ * @ @ @ @ @ @ cXcXcXcXcXcXcXcXcXcXcXcX",
"cXcXcXcXcXcXcXcXcXcXG.F.F.A.D.L +.I.H.x.x.x.x.Y q j q K / z.z.z.j.j.j.j.j.k.g.#.p.p.,.a.@ @ @ @ @ O O @ cXcXcXcXcXcXcXcXcXcXcXcX",
"cXcXcXcXcXcXcXcXcXcX~ F.F.A.G.!. .K.U.J.x.I.v./ j j j L / z.j.c.z.j.z.j.j.k.k.p.p.p.p.<.O # # # # # # # cXcXcXcXcXcXcXcXcXcXcXcX",
"cXcXcXcXcXcXcXcXcXcXcXG.A.A.P.Q.$.H.K.K.H.x.z.^ j k j L / z.c.z.z.j.j.j.z.j.h.h.h.p.g.[ + > = = = = = = cXcXcXcXcXcXcXcXcXcXcXcX",
"cXcXcXcXcXcXcXcXcXcXcXA.A.P.P.Q.=.-.K.H.I.x.I./ j k k P ^ x.z.z.z.c.z.j.z.j.*.B.B.g.i.o . 2 2 ; ; ; > > cXcXcXcXcXcXcXcXcXcXcXcX",
"cXcXcXcXcXcXcXcXcXcXcX) A.A.Y.S.^.>.H.U.H.K.x.^ k k k P ^ x.x.x.c.j.z.z.j.j.V.h.h.g.g.. < 2 2 2 2 2 2 cXcXcXcXcXcXcXcXcXcXcXcXcX",
"cXcXcXcXcXcXcXcXcXcXcXcXA.A.P.U.(.>.O.H.K.J.I.} c l k L ^ i.z.z.z.z.j.z.j.k.j.h.j.h.j.. ; ; , , > : > cXcXcXcXcXcXcXcXcXcXcXcXcX",
"cXcXcXcXcXcXcXcXcXcXcXcXS.P.L.P.l.>Xm.H.I.H.x.j.m J K /  ./ H.z.z.z.z.j.j.l.j.j.z.H.% X ; 2 ; 1 ; , ; cXcXcXcXcXcXcXcXcXcXcXcXcX",
"cXcXcXcXcXcXcXcXcXcXcXcXcXI.L.I.K.,X2X:.I.I.z.x.<X(.^.o...3.z.J.z.z.z.j.l.j.V.z.j.H.% = 2 2 2 2 2 7 aXcXcXcXcXcXcXcXcXcXcXcXcXcX",
"cXcXcXcXcXcXcXcXcXcXcXcXcXP.K.K.I.I.2X!.+.K.v.K.z.I.x.K.j.J.H.H.z.z.z.a.j.z.z.J.H.[.# w 8 8 8 8 7 8 cXcXcXcXcXcXcXcXcXcXcXcXcXcX",
"cXcXcXcXcXcXcXcXcXcXcXcXcXcXL.K.K.I.K.2X/.@.b.v.x.H.z.x.J.z.z.H.z.j.h.W.H.J.J.J.K.= % s s t s p w s cXcXcXcXcXcXcXcXcXcXcXcXcXcX",
"cXcXcXcXcXcXcXcXcXcXcXcXcXcXI.I.K.U.K.!.,X/.3.v.H.H.z.J.z.H.z.z.j.h.W.H.z.I.J.I.j.% z r r r d r z cXcXcXcXcXcXcXcXcXcXcXcXcXcXcX",
"cXcXcXcXcXcXcXcXcXcXcXcXcXcXcXK.K.K.Y.I.l.3X0X3.H.z.h.z.z.z.j.h.a.W.x.J. X{.I.J.& % V V V V v V W cXcXcXcXcXcXcXcXcXcXcXcXcXcXcX",
"cXcXcXcXcXcXcXcXcXcXcXcXcXcXcX`.I.I.I.I.K.U.9XqX&X7.<.h.h.a.k.).(.H.J. X{. X X}.% A A A A C D D cXcXcXcXcXcXcXcXcXcXcXcXcXcXcXcX",
"cXcXcXcXcXcXcXcXcXcXcXcXcXcXcXcXP U.K.Y.U.U.n.I.9X0X2X3X,X(.(.z.J.J. X X.X X X& w T F F S S S cXcXcXcXcXcXcXcXcXcXcXcXcXcXcXcXcX",
"cXcXcXcXcXcXcXcXcXcXcXcXcXcXcXcXcXn.U.U.U.U.U.K.I.K.U.I.Y.I.K.I.I. X XXX.X X- - F F F S S A cXcXcXcXcXcXcXcXcXcXcXcXcXcXcXcXcXcX",
"cXcXcXcXcXcXcXcXcXcXcXcXcXcXcXcXcXcXv.K.U.I.U.I.I.U.U.U.Y.I.I.T..X{..XXX.X& & W C V b V V cXcXcXcXcXcXcXcXcXcXcXcXcXcXcXcXcXcXcX",
"cXcXcXcXcXcXcXcXcXcXcXcXcXcXcXcXcXcXcX~ P.Y.U.U.U.T.T.T.T.T..XXXXX.XXXXX& $ A A A A Z F cXcXcXcXcXcXcXcXcXcXcXcXcXcXcXcXcXcXcXcX",
"cXcXcXcXcXcXcXcXcXcXcXcXcXcXcXcXcXcXcXcX~ P.Y.Y.T.Y.Y..XoX.X.XOXXXXX{.- $ _ Q Q Q T G cXcXcXcXcXcXcXcXcXcXcXcXcXcXcXcXcXcXcXcXcX",
"cXcXcXcXcXcXcXcXcXcXcXcXcXcXcXcXcXcXcXcXcXcXR .XoXoX.XoX.XXXXX{.OX3 3 - ] _ Q _ Q cXcXcXcXcXcXcXcXcXcXcXcXcXcXcXcXcXcXcXcXcXcXcX",
"cXcXcXcXcXcXcXcXcXcXcXcXcXcXcXcXcXcXcXcXcXcXcXcXG F OXXXXXOX` n j 3 s.s.d.{ { cXcXcXcXcXcXcXcXcXcXcXcXcXcXcXcXcXcXcXcXcXcXcXcXcX",
"cXcXcXcXcXcXcXcXcXcXcXcXcXcXcXcXcXcXcXcXcXcXcXcXcXcXcXW G G C _.eXcXcXcXcXcXcXcXcXcXcXcXcXcXcXcXcXcXcXcXcXcXcXcXcXcXcXcXcXcXcXcX",
"cXcXcXcXcXcXcXcXcXcXcXcXcXcXcXcXcXcXcXcXcXcXcXcXcXcXcXcXcXcXcXcXcXcXcXcXcXcXcXcXcXcXcXcXcXcXcXcXcXcXcXcXcXcXcXcXcXcXcXcXcXcXcXcX",
"cXcXcXcXcXcXcXcXcXcXcXcXcXcXcXcXcXcXcXcXcXcXcXcXcXcXcXcXcXcXcXcXcXcXcXcXcXcXcXcXcXcXcXcXcXcXcXcXcXcXcXcXcXcXcXcXcXcXcXcXcXcXcXcX",
"cXcXcXcXcXcXcXcXcXcXcXcXcXcXcXcXcXcXcXcXcXcXcXcXcXcXcXcXcXcXcXcXcXcXcXcXcXcXcXcXcXcXcXcXcXcXcXcXcXcXcXcXcXcXcXcXcXcXcXcXcXcXcXcX"
};
