/* XPM */
static char *result[] = {
/* columns rows colors chars-per-pixel */
"64 64 238 2 ",
"   c #020000",
".  c #0B0300",
"X  c #150603",
"o  c #1D1205",
"O  c #280700",
"+  c #3C0200",
"@  c #340500",
"#  c #261A0A",
"$  c #381804",
"%  c #261E15",
"&  c #392A1B",
"*  c #020629",
"=  c #040934",
"-  c #393939",
";  c #362F23",
":  c #07222E",
">  c #440300",
",  c #4B0400",
"<  c #4B0F00",
"1  c #5D0600",
"2  c #530500",
"3  c #441C05",
"4  c #501C03",
"5  c #660800",
"6  c #750A00",
"7  c #7C0B00",
"8  c #44220C",
"9  c #4B260C",
"0  c #57270A",
"q  c #482716",
"w  c #572C13",
"e  c #5D3214",
"r  c #5A341C",
"t  c #652E0C",
"y  c #683819",
"u  c #763A16",
"i  c #652E11",
"p  c #503528",
"a  c #642521",
"s  c #7A411B",
"d  c #6E401D",
"f  c #574432",
"g  c #784524",
"h  c #77523B",
"j  c #6A4732",
"k  c #7B6315",
"l  c #071747",
"z  c #0A1E54",
"x  c #0C1E5F",
"c  c #0E225B",
"v  c #0D2464",
"b  c #0F296B",
"n  c #0E2669",
"m  c #102A6F",
"M  c #112D73",
"N  c #132F7B",
"B  c #13327C",
"V  c #123176",
"C  c #0F2970",
"Z  c #30346E",
"A  c #494949",
"S  c #585959",
"D  c #5F5240",
"F  c #7E5942",
"G  c #795540",
"H  c #665E55",
"J  c #6E675C",
"K  c #636363",
"L  c #6A6B6A",
"P  c #737474",
"I  c #7C7C7C",
"U  c #787778",
"Y  c #70706F",
"T  c #702145",
"R  c #830C00",
"E  c #8B0E00",
"W  c #920F00",
"Q  c #961000",
"!  c #9C1100",
"~  c #8A170A",
"^  c #A31200",
"/  c #AB1300",
"(  c #B31500",
")  c #BB1700",
"_  c #B81A03",
"`  c #8A2B0D",
"'  c #9E263C",
"]  c #C51800",
"[  c #CC1A00",
"{  c #C11700",
"}  c #D31B00",
"|  c #DB1D00",
" . c #DD1F0B",
".. c #E31E00",
"X. c #E91F00",
"o. c #D4240C",
"O. c #E22201",
"+. c #EB2100",
"@. c #E7240A",
"#. c #F62300",
"$. c #E83004",
"%. c #85441C",
"&. c #8C4D24",
"*. c #834B27",
"=. c #8B522C",
"-. c #965429",
";. c #885737",
":. c #985C31",
">. c #A25C31",
",. c #A25B2D",
"<. c #9D663B",
"1. c #A96535",
"2. c #B36D3A",
"3. c #B46B39",
"4. c #B9713E",
"5. c #856700",
"6. c #845C44",
"7. c #8C634B",
"8. c #93674E",
"9. c #956A51",
"0. c #9A6E53",
"q. c #9D7155",
"w. c #82745F",
"e. c #B87543",
"r. c #A37659",
"t. c #AA7B5D",
"y. c #A5775A",
"u. c #B37552",
"i. c #927466",
"p. c #C37B45",
"a. c #C87B5E",
"s. c #DB6F6B",
"d. c #B19400",
"f. c #D1B800",
"g. c #DEC700",
"h. c #EBD600",
"j. c #FBF600",
"k. c #F9E900",
"l. c #B88565",
"z. c #B0856A",
"x. c #BD8453",
"c. c #C98955",
"v. c #D78C52",
"b. c #D5935D",
"n. c #CE864E",
"m. c #E3995C",
"M. c #C38E6C",
"N. c #D39C7A",
"B. c #CC956E",
"V. c #E59D64",
"C. c #DAA17D",
"Z. c #E7A873",
"A. c #153583",
"S. c #163986",
"D. c #16368A",
"F. c #17398C",
"G. c #183B8F",
"H. c #193C94",
"J. c #1B3E9A",
"K. c #193794",
"L. c #192D93",
"P. c #1D3DA4",
"I. c #1A4096",
"U. c #1B429C",
"Y. c #1F408D",
"T. c #1D46A3",
"R. c #1E49A4",
"E. c #1F49AA",
"W. c #1F46A9",
"Q. c #1F51AB",
"!. c #204CAD",
"~. c #2345A4",
"^. c #214DB2",
"/. c #234DBB",
"(. c #2251B4",
"). c #2454BB",
"_. c #235AB8",
"`. c #2553AA",
"'. c #586498",
"]. c #2556C1",
"[. c #265AC4",
"{. c #295ECC",
"}. c #285CC7",
"|. c #2A5ED1",
" X c #254FC3",
".X c #2962CE",
"XX c #2664C8",
"oX c #2B63D4",
"OX c #2D68D8",
"+X c #3072D7",
"@X c #3176E3",
"#X c #6C85A6",
"$X c #3BB0F1",
"%X c #37B4DF",
"&X c #43C8FE",
"*X c #47E8FE",
"=X c #848484",
"-X c #8B8B8B",
";X c #888786",
":X c #939393",
">X c #9C9C9C",
",X c #979897",
"<X c #909090",
"1X c #A4A4A4",
"2X c #ABABAB",
"3X c #B4B4B4",
"4X c #B9BABA",
"5X c #ADB0B1",
"6X c #AEA09E",
"7X c #D0A58A",
"8X c #E6AB83",
"9X c #EEB38B",
"0X c #F2B58D",
"qX c #F6BA92",
"wX c #E5B1A9",
"eX c #BFC0BF",
"rX c #FDC49B",
"tX c #FDCCA1",
"yX c #F6CBA1",
"uX c #FDD3A9",
"iX c #CCCBCB",
"pX c #C5C6C6",
"aX c #D4D4D4",
"sX c #DBDBDB",
"dX c #D6DCDC",
"fX c #CBD2D3",
"gX c #DCE5E5",
"hX c #E3E3E4",
"jX c #EBEBEB",
"kX c #E3E9EA",
"lX c #EDF5F5",
"zX c #F4F4F4",
"xX c #FDFDFD",
"cX c #F8F6F5",
"vX c #F0F0EF",
"bX c #E1DFDE",
"nX c #88A5D0",
"mX c None",
/* pixels */
"mXmXmXmXmXmXmXmXmXmXmXmXmXmXhXcXxXxXxXxXxXsXmXmXmXmXmXmXmXmXmXmXmXmXmXmXmXmXmXmXmXmXmXmXmXmXmXmXmXmXmXmXmXmXmXmXmXmXmXmXmXmXmXmX",
"mXmXmXmXmXmXmXmXjXxXxXxXxXxXgXzXxXxXcXjX3XcXkXaXmXmXmXmXmXmXmXmXmXmXmXmXmXmXmXmXmXmXmXmXmXmXmXmXmXmXmXmXmXmXmXmXmXmXmXmXmXmXmXmX",
"mXmXmXmXmXmXhXxXcXxXxXxXxXxXxXcXjXsX3XjXhXiX>XiX1XmXmXmXmXmXmXmXmXmXmXmXmXmXmXmXmXmXmXmXmXmXmXmXmXmXmXmXmXmXmXmXmXmXmXmXmXmXmXmX",
"mXmXmXmXmXjXxXxXxXxXxXxXxXjX3XjXjXbXaX5XsXiX>X,X;XmXmXmXmXmXmXmXmXmXmXmXmXmXmXmXmXmXmXmXmXmXmXmXmXmXmXmXmXmXmXmXmXmXmXmXmXmXmXmX",
"mXmXmXmXsXkXjXhXaXpXpXaXjXvXhXiX-XiX4X,X>X-X-X2XsX2XmXmXmXmXmXmXmXmXmXmXmXmXmXmXmXmXmXmXmXmXmXmXmXmXmXmXmXmXmXmXmXmXmXmXmXmXmXmX",
"mXmXmX4XaXsXsXbXaX2XK L 1XaXpX2X<XK U -XS =XxXlXsX3X1XmXmXmXmXmXmXmXmXmXmXmXmXmXmXmXmXmXmXmXmXmXmXmXmXmXmXmXmXmXmXmXmXmXmXmXmXmX",
"mXmXmX3XiXaXsXsXaXiX2X1X2X1X=XP 2XL ,XS ,XK I =XL ;X>X2XmXmXmXmXmXmXmXmXmXmXmXmXmXmXmXmXmXmXmXmXmXmXmXmXmXmXmXmXmXmXmXmXmXmXmXmX",
"mXmXmX2X4XpXaXaXaXiXpX3X;XK U <X>X-X-X<X;X=XS - K :X>XmXmXmXmXmXmX[ } } } | | } } } ] { ) / mXmXmXmXmXmXmXmXmXmXmXmXmXmXmXmXmXmX",
"mXmXmXmX1X3XpXiXpX4X5X1X,X'.U z.z.1X,X-XI I I I I mXmXmX7 R E ( ..O..... .| ^ xXxXxXcXxXxX~ ) ( / mXmXmXmXmXmXmXmXmXmXmXmXmXmXmX",
"mXmXmXmX1X,X>X>X,X-Xi.P K K K L '.,X5X-X=X;X:XmX7 R 7 7 7 7 R ] +.+.@.+.o.xXxXwX..| | o.xXs.[ vX! / ^ mXmXmXmXmXmXmXmXmXmXmXmXmX",
"mXmXbXcXhXeX,X=XL S A A S S Y #X;X=X:X,X:X7 7 7 7 7 7 R R R R _ O.O.O.O._ xX@.O.xXlXlX} jXlX] kXgXE / Q 7 mXmXmXmXmXmXmXmXmXmXmX",
"mXmX3XaXhXjXjXjXjXhXsXaX3XP #Xz.I ;X>XR 2 5 7 7 7 7 7 7 7 ! | ..O.O.| O.} ] jXdXdXgXgXgXgXdX) _ fX5 ^ ! W 6 mXmXmXmXmXmXmXmXmXmX",
"mXmXmXmX5 5 6 7 6 7 7 6 6 6 6 7 R R E R 2 5 5 6 1 + , , > , , , > > > > , > + + > 2 W ( 6XiXdXfX6 / ^ ! W R mXmXmXmXmXmXmXmXmXmX",
"mXmXmXmX^ ] } } } } [ { / _ _ / ^ W R 7 2 1 @ 1 2 2 > > @           + + + > > > , , > > > , , W ^ ^ ! Q W R 6 mXmXmXmXmXmXmXmXmX",
"mXmXmXmXmX| ..| O.O.| [ / _ ( / ! W R R > + @ 8.9.q.r.. y.t.t.t.      t.y.r.q.8.+ @ + + > > + > + + R E E E 6 6 mXmXmXmXmXmXmXmX",
"mXmXmXmXmX..........O.} / _ / ! Q Q R 6 $ 3 8.9.q.r.y.y.l.bXxXxXcX0XB.yXrXqX8XM.z.q.q.q.@ @ @ + + > @ + 7 R 7 7 mXmXmXmXmXmXmXmX",
"mXmXmXmXmX| ....X.X...} / ( ( ^ W E R < 0 7.9.q.q.y.z.3XdXlX$X&X&X#XqXrXrXqXqX0X9X9X          . + + + + > 2 7 7 mXmXmXmXmXmXmXmX",
"mXmXmXmXmX} ..X.X.X.| [ / ( ( ^ W R R E 0 8.q.r.z.B.wXlXnX*X      $XtXtXrX0X8XV.t.w.5X3X9.l.z.o X + > > + + 7 R mXmXmXmXmXmXmXmX",
"mXmXmXmXmXmX| ..X.X.| [ / ( / Q E R 7 E q.q.# o qXrXxXxX_.%X= tXuXuXuXtXrX9XC.#X: * %X`.pX4XB.t.9.t.+ + > 2 7 mXmXmXmXmXmXmXmXmX",
"mXmXmXmXmXmX] } | | [ ) ! ( / Q R R 7 E y.# p f & # tXtXxX9XyXtXuXyXrXrXrXqX9X9X8Xl.  +X4X6Xl.q.q.y.+ 1 5 7 mXmXmXmXmXmXmXmXmXmX",
"mXmXmXmXmXmX{ } } [ ] ) / ) ( ^ W E E W uXuX. % f H p & # M.8X0X0X0X0X0X9XZ.7XN.N.l.q.3X4XM.t.q.t.3 < 5 5 mXmXmXmXmXmXmXmXmXmXmX",
"mXmXmXmXmXmX^ ) } } [ ] { { ) / Q Q W Q rXrXtXo # & f J w.j 0.l.M.M.M.M.M.l.l.l.y.7.y.C.N.l.t.t.3 3 1 mXmXmXmXmXmXmXmXmXmXmXmXmX",
"mXmXmXmXmXmXmX( ) } } [ ] [ ) / ! ^ ! Q 0XqXrX0XrX6.6.X O % p % q r j j h j f h 8.        X q.$ $ 8.;.8.mXmXmXmXmXmXmXmXmXmXmXmX",
"mXmXmXmXmXmXmX/ ) ) ) ) } ) ) ) _ _ _ / Z.8X8XZ.8X8X;Xp 6.            .   X . . X X o % ; ; q.3 8 7.6.;.mXmXmXmXmXmXmXmXmXmXmXmX",
"mXmXmXmXmXmXmX^ ) } | ) | } [ [ ] ] ] ( Z Z.Z.Z.8XqX+ O . X p ,XP p q     p ;       f 9.9.0.t.O q.9.9.z.mXmXmXmXmXmXmXmXmXmXmXmX",
"mXmXmXmXmXmXmXmX] } ! | | | | [ ] / E V B Y N.C.8X8XqX> ` Q 2 < @ O X a 9.8.7.6.F 6.6.7.0.y.9.y.q.9.mXmXmXmXmXhXmXmXmXmXmXmXmXmX",
"mXmXmXmXmXmXmX[ _  .+.+...| } / E +XoXXX~.V R M.8XZ.l.7XqXrXa.u.yXM.8.8.9.8.6.F h 6.8.0.t.h 8.mX<X>X>X3X4XaXhXvXcXjXhXdX3XmXmXmX",
"mXmXmXmXmXmX} / +.#.#.+.#.#.X. XOXOXoX^.(.] | ../ ~ t.M.t.f p j D 6.F 6.G G G 6.7.9.mXmXmXmXL L ;X>X2XiXaX:XU 2XcXcXaX<X>X>XmXmX",
"mXmXmXmXmX] [ +.#.#.#.X.X.OX@X@XOXOX].OXM } ..| ....X.| E R R R 7 R b mXmXmXmXmXmXmXmXmXmXmXL =XK U >X4X,XdXaXhXzXzXjXhXsXaXmXmX",
"mXmXmXmX^ $.#.+.+.+...o.k.j.j.j.k.|.H._.^.U.X.X.| } } | ..} } ] ] ( (.~.A.n mXmXmXmXmXmXmXS P <X:X:X;XS -X=XL ,XcXxXcXbX:X2X2XmX",
"mXmXmX! O.] | |  .OX Xj.j.j.j.j.k.h.[.^.[.{.}.].].XXXXT ] ] [ ) [ } Q._.R.A.a mXmXmXmXmXmXmXL :X1X3XaXsX>XpXiXsXhXvXjXjXbXaXaX5X",
"mXmXmX/ ) ' OX.X{.}.].OXf.h.h.f.5..XR.).).).).).)./.).).).^.^.^.!.J.Q.Q.U.H.x 7 Q mXmXmXmXsXY iXhXxXxXvX;X=XP K A K jX2XL I >X<X",
"mXmX~.{.{.].|.|.|.{. XOX].}.].R.E.I.).{.{.}.}.[.].).(.^.W.W.T.W.T.{.j.j.h.g.d.7 W E E ^ } cXxX4XcXxXxXxXcXbX1XiXbXvXcXjXhXdXiX2X",
"mXE.^.[.{.{..XoX|.|.[.]././.].}..X{.{.{.{.{.[.[.].).).).(.^.^.W.J.+Xg.h.g.f.d.E E E ! X.#.X.cXbX4XbXjXzXzXzXY K A - A A S L =XmX",
"mX(.).{.}.{.{..X|.|.{..X|.{.{.{.{.{.{.{.}.[.).).(.(.^.E.E.T.T.H.K.G.Y.~.A k C 7 7 R R / O.{ o.aXsXU <X>X1X1X:X=XY L K S K ;XmXmX",
"^.E.).[.[.].{.{.{.{.{..X{.{.{.{.{.{.}.[.[.[.).(.!.E.E.E.R.W.oX.X|.|.{.{.}.).).E.~.Z 5 6 ^ ) ( ^ S aXL - - - - S K I mXmXmXmXmXmX",
"T.D.)..X^.].[.[.^.}.}.}.[.}.[.[.].[.).)._.(.!.!.E.W.R.!.|.|.oXoXoXOX|.|.}.].)._.E.T.U.1 5 6 5 < 1 5 a U ;X:XmXmXmXmXmXmXmXmXmXmX",
"A.J.W.^._._..X^./.].].[.(.^.).).).(.(.(.(.E.!.R.R.R.XX[.K.L.OXoXoXOXOXOXoX{.[.).).(.!.R.I.mXmXmXmXmXmXmXmXmXmXmXmXmXmXmXmXmXmXmX",
"A.I.T.T.E.^.^.(.^._.XXT.W.^.(.^.(.!.!.E.Q.R.U.U.U._.K./.).).+X@XoXoXOXOX|.OX|.}.].).^.T.R.I.Z mXmXmXmXmXmXmXmXmXmXmXmXmXmXmXmXmX",
"B D.I.I.U.T.R.T.W.T.T.W.E.E.R.R.R.R.Q.E.R.I.U.I.~.D.~.!.).).(.+X@XoX|.OXOXOXoX{.].).`.'.1.2.2.2.1.1.,.-.&.%.s mXmXmXmXmXmXmXmXmX",
"mXB A.G.G.H.I.I.H.I.I.I.I.I.I.G.F.A.Y.B B M B V S.S.I.I.~._.).^.@XOX|.OXoXoXOX[.'.2.p.p.4.x.4.2.1.1.,.-.&.%.s s u y mXmXmXmXmXmX",
"mXB B A.A.A.A.S.S.S.S.S.S.S.S.S.B B B b b v b M b V V V I.E.).[. XL.|.|.oX`.6.3.u.c.b.b.b.c.4.2.<.-.&.s %.s t u u i e mXmXmXmXmX",
"mXmXB B A.A.A.B B V M M M M m b n v c c z z z z z z l l z R.(.).).oXL.OX'.<.4.e.c.b.c.e.,.,.=.&.%.s -.1.u 0 0 0 0 y y e mXmXmXmX",
"mXmXB B B B S.S.S.A.B M b b c z z l l = l l l = = * * * * I.Q.).!..XH.=.,.1.4.e.e.>.&.*.x.B.b.>.-.=.=.-.&.%.=.:.<.=.w w mXmXmXmX",
"mXmXmXB B B A.S.S.S.S.A.B B V m v v v v v M mXmXmXmXmXmXmXG.T._.(.Z &.&.-.-.&.s y p.M.-.=.g =.*.g g g g g g g g d y w mXmXmXmXmX",
"mXmXmXB V S.F.H.I.S.S.S.S.B B V m b v z z b M mXmXmXmXmXmXmXE.I.s s %.` u t 0 e.:.=.=.g =.*.g g g s g d d r e e e 0 9 mXmXmXmXmX",
"mXmXmXmXB V S.G.H.H.I.H.G.S.S.F.S.V M v v v M mXmXmXmXmXmXmXA.u u u t 4 8 :.=.s d d r y e y e r e e e e w 9 8 q 9 0 mXmXmXmXmXmX",
"mXmXmXmXmXB B F.H.H.I.H.I.I.G.I.H.F.S.B b b b M mXmXmXmXmXmXt t t t 0 t t 8 8 8 $ $ $ 8 8 8 8 8 8 9 q $ 8 9 9 9 w mXmXmXmXmXmXmX",
"mXmXmXmXmXmXB N G.K.J.J.T.J.J.J.H.H.H.F.N C v n M mXmXmXmXmXmX4 0 e.x.1.:.;.<.e.2.<.g e 8 $ X O # O $ $ 9 9 mXmXmXmXmXmXmXmXmXmX",
"mXmXmXmXmXmXmXv N G.H.J.J.U.T.U.K.K.K.F.A.M n n C mXmXmXmXmXmXO ;.s g g d d d e w w 9 w 9 e y e e t mXmXmXmXmXmXmXmXmXmXmXmXmXmX",
"mXmXmXmXmXmXmXmXM N A.D.F.F.D.A.A.A.A.A.D.A.A.V b M B mXmXmXmXmXmXw w 9 9 9 9 8 8 8 $ $ 8 8 9 8 mXmXmXmXmXmXmXmXmXmXmXmXmXmXmXmX",
"mXmXmXmXmXmXmXmXmXM A.A.D.D.D.F.D.F.F.H.K.J.K.D.N b M N mXmXmXmXmXmXmXmX9 8 $ $ O O mXmXmXmXmXmXmXmXmXmXmXmXmXmXmXmXmXmXmXmXmXmX",
"mXmXmXmXmXmXmXmXmXmXm D.K.K.H.I.J.P.J.J.J.J.H.H.A.N C N D.mXmXmXmXmXmXmXmXmXmXmXmXmXmXmXmXmXmXmXmXmXmXmXmXmXmXmXmXmXmXmXmXmXmXmX",
"mXmXmXmXmXmXmXmXmXmXmXm A.K.J.J.J.J.U.J.H.H.K.L.K.K.D.C F.0 mXmXmXmXmXmXmXmXmXmXmXmXmXmXmXmXmXmXmXmXmXmXmXmXmXmXmXmXmXmXmXmXmXmX",
"mXmXmXmXmXmXmXmXmXmXmXc n N D.K.J.K.J.J.~.W.!.!.W.T.D.D.t %.t mXmXmXmXmXmXmXmXmXmXmXmXmXmXmXmXmXmXmXmXmXmXmXmXmXmXmXmXmXmXmXmXmX",
"mXmXmXmXmXmXmXmXmXmXmXmXv B K.T.W.^./.). X].^.XX).H.q >.-.&.u 4 mXmXmXmXmXmXmXmXmXmXmXmXmXmXmXmXmXmXmXmXmXmXmXmXmXmXmXmXmXmXmXmX",
"mXmXmXmXmXmXmXmXmXmXmXmXmXS.A.P.P.)..X].!.A.w v.n.p.p.3.1.>.&.u mXmXmXmXmXmXmXmXmXmXmXmXmXmXmXmXmXmXmXmXmXmXmXmXmXmXmXmXmXmXmXmX",
"mXmXmXmXmXmXmXmXmXmXmXmXmXmX` ,.4.v.v.m.V.V.m.V.m.s.p.p.e.>.&.%.i mXmXmXmXmXmXmXmXmXmXmXmXmXmXmXmXmXmXmXmXmXmXmXmXmXmXmXmXmXmXmX",
"mXmXmXmXmXmXmXmXmXmXmXmXmXmX&.2.p.v.m.V.Z.Z.Z.Z.m.v.p.4.1.>.-.s i mXmXmXmXmXmXmXmXmXmXmXmXmXmXmXmXmXmXmXmXmXmXmXmXmXmXmXmXmXmXmX",
"mXmXmXmXmXmXmXmXmXmXmXmXmXmXs >.4.n.v.m.V.V.V.b.p.4.3.>.,.-.*.y r ;.mXmXmXmXmXmXmXmXmXmXmXmXmXmXmXmXmXmXmXmXmXmXmXmXmXmXmXmXmXmX",
"mXmXmXmXmXmXmXmXmXmXmXmXmXmXmX%.>.3.2.e.e.e.1.1.,.,.&.` s y a w y mXmXmXmXmXmXmXmXmXmXmXmXmXmXmXmXmXmXmXmXmXmXmXmXmXmXmXmXmXmXmX",
"mXmXmXmXmXmXmXmXmXmXmXmXmXmXmXmXu &.&.&.&.*.%.u u t 0 w 3 O @ i mXmXmXmXmXmXmXmXmXmXmXmXmXmXmXmXmXmXmXmXmXmXmXmXmXmXmXmXmXmXmXmX",
"mXmXmXmXmXmXmXmXmXmXmXmXmXmXmXmXmX@ < $ > 3 < $ @ X X X 0 y w mXmXmXmXmXmXmXmXmXmXmXmXmXmXmXmXmXmXmXmXmXmXmXmXmXmXmXmXmXmXmXmXmX",
"mXmXmXmXmXmXmXmXmXmXmXmXmXmXmXmXmXmXmXmX. O $ 0 w q 3 mXmXmXmXmXmXmXmXmXmXmXmXmXmXmXmXmXmXmXmXmXmXmXmXmXmXmXmXmXmXmXmXmXmXmXmXmX"
};
