/* XPM */
static char *e910a9e6bc1c4ee0bc73c9babfa89834utDDD06KaTvCGjy8[] = {
/* columns rows colors chars-per-pixel */
"64 64 231 2 ",
"   c None",
".  c #060302",
"X  c #171414",
"o  c #130B07",
"O  c #2B1D0F",
"+  c #2B231D",
"@  c #312925",
"#  c #473A31",
"$  c #4F433A",
"%  c #735126",
"&  c #554D4B",
"*  c #685C53",
"=  c #7A6F6B",
"-  c #9D010B",
";  c #990C0E",
":  c #9C0E11",
">  c #9F0915",
",  c #8C1212",
"<  c #9D1212",
"1  c #971215",
"2  c #8D0E0F",
"3  c #A3000A",
"4  c #AB010C",
"5  c #A90D0D",
"6  c #B3000C",
"7  c #BB000D",
"8  c #B00B0D",
"9  c #A20511",
"0  c #A20B15",
"q  c #A90A15",
"w  c #BC0112",
"e  c #B60816",
"r  c #A21412",
"t  c #A41B14",
"y  c #A4141C",
"u  c #AA1718",
"i  c #B11216",
"p  c #AB2217",
"a  c #941D21",
"s  c #A51C22",
"d  c #AA1C24",
"f  c #B81923",
"g  c #9B2428",
"h  c #AA252A",
"j  c #AA292E",
"k  c #A72328",
"l  c #B9242B",
"z  c #AC2D32",
"x  c #A62B31",
"c  c #B62E33",
"v  c #AD3136",
"b  c #AD3439",
"n  c #A8383C",
"m  c #B13237",
"M  c #BA3136",
"N  c #B23539",
"B  c #BC3339",
"V  c #B3393D",
"C  c #B93A3E",
"Z  c #CC0C1B",
"A  c #C50516",
"S  c #CD0F1C",
"D  c #C61924",
"F  c #D81925",
"G  c #E11E29",
"H  c #CB252D",
"J  c #CC2C33",
"K  c #C42C34",
"L  c #D42C33",
"P  c #DC2A33",
"I  c #D92731",
"U  c #C23238",
"Y  c #CC333A",
"T  c #C83238",
"R  c #D4323A",
"E  c #DB333B",
"W  c #D73238",
"Q  c #DB222C",
"!  c #E3232D",
"~  c #E32B34",
"^  c #EC2C35",
"/  c #E72731",
"(  c #F42A34",
")  c #F52B35",
"_  c #E7343C",
"`  c #F3333C",
"'  c #FB333C",
"]  c #885A2B",
"[  c #8D6633",
"{  c #95723C",
"}  c #9A753D",
"|  c #986B38",
" . c #B43E42",
".. c #B83D41",
"X. c #AB3C41",
"o. c #C93C44",
"O. c #D83C43",
"+. c #E73C44",
"@. c #F53B43",
"#. c #FA3B43",
"$. c #F73740",
"%. c #B9464A",
"&. c #BB5459",
"*. c #B5484C",
"=. c #9B7942",
"-. c #8E7550",
";. c #A27D43",
":. c #897C72",
">. c #AD747B",
",. c #CD4C51",
"<. c #EB434B",
"1. c #E9454C",
"2. c #F3444B",
"3. c #FB434B",
"4. c #FA444B",
"5. c #ED4B53",
"6. c #F44A52",
"7. c #FC4D54",
"8. c #FE5057",
"9. c #FE535A",
"0. c #FF595F",
"q. c #F55359",
"w. c #EF5057",
"e. c #D15D64",
"r. c #FE5B61",
"t. c #F35C63",
"y. c #E15F67",
"u. c #C3696D",
"i. c #C67376",
"p. c #FF6166",
"a. c #FB666B",
"s. c #F96C72",
"d. c #A48349",
"f. c #A9874B",
"g. c #AF914E",
"h. c #B3964E",
"j. c #AD8D53",
"k. c #AF9052",
"l. c #B39554",
"z. c #B69A53",
"x. c #B69959",
"c. c #BA9C5B",
"v. c #B89B56",
"b. c #BDA358",
"n. c #BEA261",
"m. c #C1A65D",
"M. c #C2A563",
"N. c #C5AA65",
"B. c #CAAD6B",
"V. c #C6AB69",
"C. c #CBB16E",
"Z. c #CDB574",
"A. c #D3B573",
"S. c #D3BB7C",
"D. c #D9BD7A",
"F. c #D5B977",
"G. c #CDB070",
"H. c #CD9B67",
"J. c #DDC17E",
"K. c #E0C37F",
"L. c #AF7D85",
"P. c #FF7E82",
"I. c #AE9390",
"U. c #98A5AE",
"Y. c #9CA9B2",
"T. c #A2ACB6",
"R. c #A7B2BB",
"E. c #B7A9A7",
"W. c #AEA08E",
"Q. c #FD8A92",
"!. c #D4BD82",
"~. c #CCA4AA",
"^. c #D9C48A",
"/. c #E2C583",
"(. c #E6C98A",
"). c #EACE8D",
"_. c #E5C986",
"`. c #EED292",
"'. c #F1D596",
"]. c #F6DA9B",
"[. c #F7DB9C",
"{. c #EAD090",
"}. c #F9DEA1",
"|. c #F7DDA0",
" X c #E1D2AA",
".X c #FBE3A4",
"XX c #FCE6AA",
"oX c #FDE9AD",
"OX c #FEEDB3",
"+X c #FFF0B7",
"@X c #CBC0B3",
"#X c #AFBAC1",
"$X c #F5BAC4",
"%X c #C4B6C1",
"&X c #B9C3CD",
"*X c #BDCBD5",
"=X c #B8C9D6",
"-X c #BFD0DA",
";X c #BDD4E5",
":X c #C2CED9",
">X c #C2CDD5",
",X c #C4D3DD",
"<X c #C9D6DF",
"1X c #D7D0CC",
"2X c #C9D7E1",
"3X c #CCDAE4",
"4X c #CEDEE9",
"5X c #C5D8E4",
"6X c #D0DFE9",
"7X c #D0DEE7",
"8X c #E7D9E4",
"9X c #CCE2EC",
"0X c #D4E3ED",
"qX c #D8E5EE",
"wX c #D9E7F1",
"eX c #DCEAF4",
"rX c #D6E6F0",
"tX c #E1EDF6",
"yX c #E1EFF8",
"uX c #E5F2F9",
"iX c #E9F6FA",
"pX c #EEF9FC",
"aX c #EDF9FC",
"sX c #F2FAFD",
"dX c #F6FCFE",
"fX c #F4FCFD",
"gX c #F9FDFF",
"hX c #FBFDFF",
"jX c #FCFFFF",
"kX c #FBFEFF",
"lX c #F5F1EB",
/* pixels */
"                                                      a.r.r.8.8.7.7.8.8.r.                                                      ",
"                                              a.r.9.9.7.3.3.3.3.3.#.#.#.#.#.3.3.8.                                              ",
"                                        Q.0.9.7.7.7.7.7.8.sXsXpXsXpXpX7.#.$.#.#.' #.2.s.                                        ",
"                                    P.r.7.7.7.7.7.fXfXgXsXsXsXpXsXpXpXiXpXiXiX$.' ' ' ' 4.t.                                    ",
"                                  r.9.8.7.7.8.fXgXgXfXfXdXdXsXsXsXaXaXaXpXuXiXuXuX2.' ' ' ` 2.                                  ",
"                              s.9.9.9.8.8.gXgXgXgXgXgXfXfXsXsXpXpXsXsXaXpXiXiXiXuXuXeX) ) ' ` ` w.                              ",
"                            a.9.8.8.9.$XgXgXgXgXgXgXgXgXdXdXdXdXsXpXaXaXaXiXiXiXuXuXyXtX8X) ) ) ` <.                            ",
"                          r.9.8.8.7.hXgXgXgXhXgXgXgXgXgXdXdXdXdXfXfXsXaXpXpXiXuXuXuXyXyXeXeX) ) ` _ +.                          ",
"                        r.9.7.8.9.gXgXgXjXhXhXhXkXkXgXgXdXdXdXdXfXpXpXpXaXaXiXiXuXuXuXeXeXeXrX( ( ( _ <.                        ",
"                      t.9.8.8.9.Q.gXgXjXhXjXjXjXkXjXkXgXdXdXdXdXfXfXpXpXaXaXiXiXuXuXuXeXeXeXeX3X( ( ^ _ 1.                      ",
"                    r.9.9.8.9.9.hXgXhXhXhXjXgXjXkXgXgXgXgXgXdXdXfXsXfXpXaXaXiXuXuXuXyXeXeXeXrXrX( ( ^ ^ _ 1.                    ",
"                  t.9.8.8.9.9.gXhXhXhXjXjXjXjXjXjXjXgXgXgXdXdXdXfXfXsXpXiXaXiXiXuXuXyXyXyXeXeXrX7X( ^ ^ _ E 1.                  ",
"                a.9.8.8.8.9.r.gXhXhXhXjXjXjXjXjXjXkXjXkXgXdXdXdXfXsXsXaXaXiXiXiXuXuXyXeXeXrXrX9X7X( ) ( ^ _ 1.,.                ",
"              a.q.q.8.8.9.0.gXgXhXhXjXjXjXjXjXjXjXkXkXfXgXdXdXdXsXsXaXsXiXiXiXuXuXyXuXuXeXeXeXrX6X6X( ( ~ _ W ,.e.              ",
"            8Xq.6.8.8.8.0.r.gXgXhXjXjXjXjXjXjXjXjXjXkXkXgXdXdXsXsXsXsXaXpXiXiXuXuXyXeXeXeXrXrXrX7X3X( / ^ ~ E R ,.E.            ",
"            a.q.8.7.8.9.r.a.gXgXhXjXjXjXjXjXjXjXkXfXkXkXdXdXdXdXsXsXaXaXpXiXuXuXuXeXeXeXeXrXrX9X6X7X! ( ^ ~ _ R ,.,.            ",
"          tXq.8.6.8.9.0.r.a.gXgXjXjXjXjXjXjXjXgXgXjXgXgXdXdXdXsXsXsXpXpXpXuXuXyXyXyXeXeXwXrX0X0X7X3X( / / P P W O.,.R.          ",
"          t.q.7.7.8.0.0.0.s.kXkXhXjXjXjXjXjXjXjXgXgXgXdXgXdXsXsXsXsXuXiXuXiXiXyXuXeXeXeXwXrX0X0X7X3X+.! / / W W Y ..%.          ",
"        eXq.6.7.8.9.9.0.p.s.jXkXhXhXjXjXkXjXkXkXgXgXdXdXdXdXsXsXpXpXpXpXuXuXyXyXeXeXwXwX0XrX6X6X4X2X( / / P P R Y o.%.T.        ",
"      eX$Xq.8.7.8.9.0.p.p.s.jXkXgXjXjXkXkXkXkXkXdXdXdXdXsXsXpXpXpXiXuXpXuXiXyXeXeXeXwXrX0XrX4X3X4X,X/ / P P P J Y U C >.R.      ",
"      eXw.6.7.7.8.9.9.0.p.p.fXgXgXgXgXgXkXkXkXkXgXdXdXdXfXfXsXsXpXiXiXuXyXyXyXtXeXeXrXwX4X4X4X3X2X,X/ / I L L J T B C  .T.      ",
"      eX5.6.7.7.8.9.0.0.p.p.dXkXgXgXgXdXkXfXkXfXdXsXdXsXsXiXpXiXiXiXiXyXyXyXtXeXeXeXrX0X0X6X4X2X,X5X~ P I L L K U B M C U.      ",
"    rXyX6.7.7.7.8.9.9.0.p.p.fXfXgXdXgXgXfXkXsXfXdXsXpXsXsXpXpXiXpXuXyXyXyXeXeXwXwXwX0X4X6X3X2X5X5X:XP P L L L K U M B C U.T.    ",
"    eXw.6.6.7.8.8.9.0.0.0.p.p.sXfXfXfXfXfXfXfXfXsXsXaXpXpXiXpXtXyXuXyXtXyXeXeXwX0X0X0X4X4X2X,X,X:X~ P P L J J B M M N N C Y.    ",
"  9XeXw.6.6.7.8.8.9.9.0.r.p.p.sXsXfXfXfXdXsXsXpXpXpXpXpXiXiXiXiXuXyXtXtX6XwXwX6X6X6X4X6X3X2X5X:X:XP W L J J T U M M m m V U.R.  ",
"  rXeX5.6.6.7.8.8.9.9.9.0.0.p.0.aXsXsXsXpXsXpXpXpXaXiXiXuXuXtXtXtXtXtXtXwXwXwX6X3X6X3X3X3X2X5X-X_ R W R T T U B M M N N V Y.T.  ",
"  9XwX5.6.7.7.8.9.9.9.9.0.0.9.0.$XaXaXsXaXaXaXiXiXuXiXuXuXuXtXtXwXtX6XqX6XtX6X6X3X7X2X2X2X5X-X%XW R R J U B B B M m N N C U.T.  ",
"  0XeX6.6.6.8.7.8.9.9.9.9.9.9.9.9.iXiXiXiXiXiXiXuXuXuXyXtXtXeXeXtXqX6XwX6X6X6X6X3X3X5X2X,X-X*XE R R Y T B B N M V v N V V U.Y.  ",
"9XrX5.6.6.6.7.7.8.8.8.8.8.8.8.8.7.9.uXiXuXtXuXtXuXtXtXwXwXtXqXqXqXqX6X6X6X3X7X2X<X<X:X:X,X*XW W Y T U B B B M N N v v v V  .U.#X",
"9X9X1.6.6.7.7.7.8.8.8.8.8.8.7.8.7.8.7.8XtXtXeXeXeXeXtXqXqXqXqXqX6X6X7X3X7X3X<X<X<X,X>X*X&XW Y Y T U U B B N N v v N V V V %.Y.R.",
"9X9X5.6.6.7.7.7.7.7.7.8.7.7.7.3.6.7.4.4.4.tXeXeXwXqX0XqX6X6X6X7X7X7X2X2X3X,X:X:X,X>X:XW R Y Y T U M B B M v N b v b V N V  .Y.R.",
"9X9X5.2.2.4.7.7.7.3.7.3.3.7.7.3.4.4.4.3.3.` s.9X0X6X7X7X7X3X7X<X2X<X<X:X:X*X:X>X#XI.R J Y J K c M M v m m v v v b b b V V %.U.R.",
"4X9X5.<.6.6.7.3.7.4.4.4.4.4.4.#.3.3.' 3.` #.) ' ` 3X<X7X<X<X<X<X>X,X:X>X*X&X&XH H J H c K K M c c z M v z v v v v b N V n V U.R.",
"5X9X+.<.@.2.4.6.4.4.4.4.4.4.4.' ` @.` ` ` ^ ( ! ~ ^ ^ ! / ,X:X&X>X#X&XO.D H H H l f l f l l l h j h z j j z z v v v b N V %.U.R.",
";X9X1.<.2.2.2.@.#.#.#.#.@.' #.@.` ` ^ ^ ^ ^ / ! ! / F F Q F Q D F D D D D D D f f f f f d d k k k j k k j z x x x v v V N %.Y.R.",
"5X~.1.+.+.@.@.#.@.@.@.#.` @.` ` ` ` ^ / ! / G G F F F S S A Z A A A e e f e e i e y y y y y d y s k d k k k h x z z v v V  .>.R.",
";Xy.O.+.+.@.+.@.+.' ` ` / ( ^ ^ / ! ! F G F F S Z Z Z A A 7 7 7 6 6 6 8 6 e 4 4 4 q 9 q 0 y y y s y k k y k k k j z z m V  .&.R.",
";Xy.O.+.+._ _ _ _ ^ ~ ^ ^ ! ^ ! ! G G S S Z A A 7 7 w w 6 6 6 6 4 4 4 3 4 3 4 9 3 3 3 9 9 9 0 > y y s y s y s k k k z m b  .&.#X",
"  ~.O.O.+.E _ _ ~ ~ ! ~ F ! ! F S Z S Z A A 7 7 7 6 6 4 6 4 3 3 3 3 3 - 3 3 - 3 3 - - 3 - - - > > 0 y y < s s y k k j m N  .I.  ",
"  #XO.O.E E P ~ E ~ P F F F Z A A A A 7 7 6 6 6 4 5 4 4 5 5 5 5 5 r 5 ; - - - - - - - - - - - - 3 - 9 > y y s s k h z m N %.T.  ",
"  =XO.O.O.L I I I I D D Z Z A w A 6 6 6 6 8 8 8 u u u r t t p t t t r r t < g ; 5 - - - - - - - - 9 9 0 0 0 y y d h j m V %.R.  ",
"  =Xo.o.J J J H F D Z Z A A w w 6 6 8 8 p p p p r ; r < r r ; < < < ; < < < < ; ; < : - - - - - - - - 9 0 0 0 s u k j m  .%.#X  ",
"    ,.o.J o.H H D e e w 6 e 6 4 8 8 p p p t r < 1 [ { { } } } =.{ { { { [ % [ 1 1 2 < ; : ; - - - > > 9 9 0 y y d h j m %.,.    ",
"    e.,.o.K K f f f e e 6 6 4 q t p p 5 < [ } ;.;.d.d.j.g.z.v.z.g.d.d.;.d.d.{ } { [ ] 2 1 2 ; ; - - > 0 9 y y s d h z  .*.i.    ",
"      e.o...l f f u q e q q u t t t ] { d.f.b.D.).j.|.}.}.[.[.'.)._.K.A.N.m.O f.} d.} { [ % 2 , 2 2 > > y y s s d z m ..&.      ",
"         ...c h d y d q i u u < ] } d.V.).}.oXOX@XjX-.OXOXoXoXXX}.}.].'._.-.1X$ c.f.d.d.=.{ [ % , 2 1 1 1 y d d x z  .&.        ",
"        &. .X.h d d y s y t : | f.!.|.oXOX+X+X+XlXjX* OXoXoX.X.X.X}.[.].`.I.aX@XZ.N.b.j.d.;.=.=.[ , , g a s d x m V *.i.        ",
"          ,. .z x j k k k ] ;.G.}.oXOX+X+XOXOX% 1XlX# oXoXXXoX.X.X}.[.].'.I.lXW.# F.G.M.l.j.f.d.=.{ [ a a g x z X.%.u.          ",
"            &. .X.x x g a ;.(.}.oXOX+X+X+X+X+XO W.E.+ oXoXXXXX.X}.|.].].`.:.@X:.X K.F.V.n.x.j.j.d.d.;.a g x n n *.u.            ",
"                %.X.n n | (.XXOXoXOXOXOXOXOXOXo :.= o oXoXXX.X.X}.|.].].`.= :.* X /.D.A.n.x.k.j.j.j.f.f.x n *.&.                ",
"                  e.*.X.H.XXXXoXOXOXOXOXOXOXOXo * & . XXXX.X.X.X}.[.|.'.`.* * $ X K.D.A.n.c.x.x.l.x.c.c.*.&.u.                  ",
"                      i.'.}.XXoXoXoXoXOXoXOXoXO & & . XXXXXX.X|.}.[.'.'.{.* # @ @ D.S.G.n.c.x.x.x.c.n.B.i.                      ",
"                        |.}.XXXXoXoXoXoXoXoXoX% @ $ . .X.XXX.X|.}.].'.`.`.& + O # D.A.V.x.x.x.x.c.c.V.!.                        ",
"                          }..X.X.X.XXXXXoXoXoX.X+ + . .X|..X|.].].'.`.`.).+ o o Z.A.V.n.x.x.x.x.c.M.G.                          ",
"                          [.[.}..X.X.X.XXXXX.X.XX X W.|.|.].].].'.'.`.).(.A.. . A.V.c.x.x.x.x.x.n.M.!.                          ",
"                          '.].[.|.|.|..X|..X.X}.|.].|.].].].'.'.`.).)._./.J.F.G.M.c.x.x.l.l.x.n.M.B.!.                          ",
"                            '.].].].].|.].|.|.].].].].'.'.'.{._.)././.K.D.A.B.H.x.l.l.l.l.x.n.n.V.Z.                            ",
"                            `.'.'.'.'.].'.'.'.`.`.`.`.`.{._._.J.K.D.D.A.B.m.v.h.k.l.k.l.l.x.n.V.V.!.                            ",
"                              {.`.`.`.`.`.`.`.).{._._._.K.K.J.J.D.G.B.M.c.h.g.g.g.g.l.l.x.b.n.n.Z.                              ",
"                              !.^.).^.(.(.(._._._.K.J.J.J.J.J.Z.B.m.v.h.g.g.g.g.k.h.l.b.b.n.n.Z.^.                              ",
"                                  V.C.S.Z.J.J.J.J.J.C.C.b.n.b.b.z.h.g.h.g.h.h.h.z.z.b.b.n.V.Z.                                  ",
"                                    J.n.b.b.h.z.h.z.h.h.h.h.b.h.h.h.h.h.z.z.z.m.b.M.n.V.Z.!.                                    ",
"                                          J.Z.N.b.b.b.b.h.h.z.z.b.b.b.m.m.m.m.B.Z.Z.!.                                          ",
"                                                   X^.J.J.J.J.C.J.A.Z.J.^.^. X                                                  "
};
