/* XPM */
static char *result[] = {
/* columns rows colors chars-per-pixel */
"64 64 104 2 ",
"   c #0F4F0C",
".  c #0F500C",
"X  c #10530E",
"o  c #13590F",
"O  c #125710",
"+  c #145D12",
"@  c #166414",
"#  c #186715",
"$  c #196C16",
"%  c #1B7017",
"&  c #1C741A",
"*  c #1F7A1D",
"=  c #207C1E",
"-  c #217F20",
";  c #22831E",
":  c #258A1F",
">  c #238320",
",  c #258A21",
"<  c #288E26",
"1  c #279021",
"2  c #289221",
"3  c #2C9927",
"4  c #2B9629",
"5  c #2E9D2A",
"6  c #309F2C",
"7  c #31A22E",
"8  c #33A630",
"9  c #35AB32",
"0  c #38AF35",
"q  c #37B332",
"w  c #3AB436",
"e  c #3CBC36",
"r  c #3BB438",
"t  c #3DB93A",
"y  c #40BF3C",
"u  c #3FC636",
"i  c #3FC837",
"p  c #3FC239",
"a  c #40C837",
"s  c #41C43C",
"d  c #43CC3B",
"f  c #45D03F",
"g  c #3FB344",
"h  c #42B549",
"j  c #44BB4B",
"k  c #46BA51",
"l  c #49BD55",
"z  c #4ABE58",
"x  c #43C542",
"c  c #45CC42",
"v  c #47C649",
"b  c #48C64D",
"n  c #4ACC4E",
"m  c #46D041",
"M  c #48D344",
"N  c #4CD54A",
"B  c #4ED84B",
"V  c #51DA4E",
"C  c #4BC257",
"Z  c #4CCE52",
"A  c #4DC25D",
"S  c #4ECA59",
"D  c #53CF5E",
"F  c #4DD051",
"G  c #51D653",
"H  c #55DE54",
"J  c #54D45C",
"K  c #55D959",
"L  c #57E057",
"P  c #58E157",
"I  c #5BE45C",
"U  c #4FC461",
"Y  c #51C663",
"T  c #53CB64",
"R  c #56D264",
"E  c #58D565",
"W  c #5AD864",
"Q  c #67DB72",
"!  c #6EDC79",
"~  c #5EE562",
"^  c #5FE861",
"/  c #60E566",
"(  c #63EB66",
")  c #66EB69",
"_  c #69EC6C",
"`  c #6DEC71",
"'  c #76EE7A",
"]  c #79EE7D",
"[  c #7BDD87",
"{  c #85F089",
"}  c #8DF191",
"|  c #97F29B",
" . c #ABD8AB",
".. c #A5F4AA",
"X. c #ABF5B0",
"o. c #BBF4BF",
"O. c #CDF2D0",
"+. c #D6FAD9",
"@. c #EEEFEF",
"#. c #E2F0E3",
"$. c #E7F0E8",
"%. c #EFF0F0",
"&. c #F2F2F2",
"*. c #FEFEFE",
/* pixels */
"l Q [ ! W R Y Y k g 7 < < > > > > > * > , 1 1 5 7 9 9 r w w x Z D ~ ^ [ ( [ ..X.X.O.#.+.&.&.&.&.$.#.O.o.X.| } | _ ( ( ( I I I P ",
"T k 7 > $ + + + X O       O O + + + @ # % % % > > , 1 2 6 7 7 8 e t p v B H K ( ( ( ( [ ] [ ( [ ( ( ( ^ H H P V M M f d a f f B ",
"T Y h = & @ + + X         O X O + + # @ $ % % > > , 2 3 6 7 q q t e y c B H L ^ ( ( ( ( ( ( ) ( ( ( ( I L H V H B M f f i f f B ",
"T l 7 - + @ + + O   X   X     X o + @ $ % % * * , > 2 3 5 7 9 q w t M v M G H I ( ( ( ( ( ( ( ( ( ( ( ^ H H B M M f M d u f f B ",
"Y l 7 - % @ + + O .         O O + + # $ $ % * * > 1 2 3 3 7 7 q 0 t d c Z H H ~ ( ( ( } ( ( ( ( ( ( ^ I P P L B M M f u i d f B ",
"T l 7 - $ @ + O .   . O     O O o + # # % % & > > 1 2 3 3 7 6 9 t p g c M F H L ( ( ( ( ( ) ) ( ( ( I ^ L L f B B f f u u u f B ",
"Y U 7 - $ # + O O O         . O O + + @ $ $ = * ; , 1 1 3 7 7 q r t p v M B H ~ ( ( ( ( ( ( ( ( ( ( ( I H H M B B f f d u i f M ",
"T l 7 - + + + O O O         O   o + @ $ $ & & * ; > 2 3 5 7 8 q 0 w m b M G H I ( ( ( } ( _ ( ( ( ( I ^ H V H B M f f f i i f B ",
"U z 7 - @ + + + . O     . . O O O + + # % % & * , > 1 1 3 7 7 8 t e y c M G L W ~ ) ) ^ ' ( ` ( ( ( ^ I H H V M B f f i i a f V ",
"T z 7 - & @ + O X           O O . + $ # % $ % = > , 2 1 3 7 8 9 w t p c M G D L ^ ^ ( ) ( [ ' ( ( ( I I H V V N B M f a u d f M ",
" .X X X O   X                           .           . . . . . O . O . O X O O O O O + + O + o + + + # + # + @ # @ @ o o o o o  .",
"@.@.@.*.Y 5 &                                       . . . . O O + @ @ % % * > = < > 4 > , > < > = = & % $ $ # # @ % ; ; *.@.@.*.",
"*.*.*.%.Y g > O                                   .     + + + @ $ $ & * = > , < < 7 4 8 4 4 4 > ; , - - ; * * * $ * > 2 @.*.*.&.",
"&.&.&.*.Y h 4 $ .                             . O . + + + + % $ * = > 5 0 g S D ~ ^ ~ ( ^ ^ ^ ^ H V N N M d d i p e a m &.&.&.*.",
"@.%.@.*.W k 4 $ + O                 . .     . + + + + $ % > 2 7 8 r r p S F L ~ ^ ( ( ( ) ( ^ I H P V N f M d u u u d M *.@.@.*.",
"*.*.*.@.~ j 7 & + +                 . . . O + + # % > > 2 2 7 9 w e i s H L L ~ ( ( ) ) ) ) ( ^ P H V M M M f u u u d M @.*.*.&.",
"&.&.&.*.~ g 7 & + + O X             . O + @ @ $ * = > 1 2 2 7 9 r r C c N H ~ E ( ( _ ( ( ( ( I I H H V f M M a a a f f *.&.&.*.",
"%.%.@.*.W j 8 * @ + O O           X . + @ @ $ * & = , 1 2 4 7 8 9 e t d M J H ~ ( ( ) ( ( ( ( ^ P H N N M M f d a a f M *.@.&.&.",
"*.*.*.@.~ j 5 - @ + +               . + + @ $ & > > 1 1 3 7 7 8 r r t c M J L ( ( ( ( ( ( ) ( ( L L V B M M f a a u d M @.*.*.&.",
"&.&.&.*.~ h 8 - @ + + X .         X O + @ $ % & & > , 2 3 5 7 7 w r c d D K L ~ ) ( ( ( ( ( ( ( L L N B M f d f u u d f *.%.%.*.",
"@.@.@.*.W U 8 * @ + O           . O X + @ $ $ & > = , 2 3 3 8 8 r t t c H L L E ( ( { ( ( ( ( ( P L B B f M f a u i d M *.@.@.*.",
"*.*.*.@.R U 8 * $ + + X X       + X + @ + $ $ * & > > 2 2 7 7 0 w r u n M L H ^ ( ( _ ( ( ( ( ( I L V B f M f a u i f M @.*.*.%.",
"&.%.&.*.T h 6 * + + X +       + O X + + @ @ $ = * > , 2 3 2 7 0 9 r t d M L P I ( ( ) ( ( ( ^ I P L M V M f d a i u d M *.@.%.*.",
"@.%.%.*.T A 8 - $ + O +         O X + + + $ $ = % > , 2 3 5 7 7 w r u b M K ^ ( ) ( ( ( ( ( ( I P L H M M M f a i u d m *.@.@.*.",
"*.*.*.%.T j 8 - @ + + O O       + + + + + # % * = = , 1 2 6 7 9 r r c a N B H ^ ( ( ( ( ( ( ( I H H M B M f d u u i d M @.*.*.&.",
"&.%.%.*.T j 6 - # + + O O   X   . O + + + # % * = > , 2 2 7 7 7 9 r t d M B L / ( ( ( ) ( ( I ^ L L H B M f f u u u d M *.&.@.*.",
"@.%.@.*.Y j 6 * @ + +             X . + + % $ * * = 1 2 1 2 7 0 8 r t x S H L I ( ) ( ( ( ( ^ I H H B B f M d u i u d M *.@.@.*.",
"*.*.*.%.Y j 7 & @ + +   O       + X X + + $ % % & > , 2 5 2 7 7 8 r t b M H H I ( ( ( ( ( ( ( ^ L H V V M f a u u a d M @.*.*.%.",
"&.@.%.*.T j 7 - # + +   O         O + + % $ $ % = < , 1 4 2 7 7 8 e w t M G L I ( ( ( ( ( ( ( I H H H f M M a a i u d M *.&.@.*.",
"@.@.%.*.Y j 7 - # + O + O       . O X + + $ % % = > 2 1 2 7 7 q 8 p m Z M N L H ( ( ( ( ( ( I P H L M f M d a a u i d M *.@.@.*.",
"*.*.*.%.Y g 7 * @ + +           . + . + $ @ % & % > , 1 2 2 7 7 r r c s M B D ~ ) ( ( ( ( ( I ^ P V M M M d a u 9 i u M @.*.*.@.",
"@.@.%.*.Y j 7 & # @ +   O       . O + + + % $ = * 1 , 1 2 2 7 7 e p u d Y B H I ( ( ( ( ( ( ( H H P P M M d f u i i d m *.@.@.*.",
"@.%.@.*.U j 7 - @ + + +         . + . @ + $ $ & & * , 2 2 6 7 7 w w a v M D H ~ ( ( ( ( ( ( I ^ L H M B M M d u u u d M *.@.@.*.",
"*.*.*.@.Y U 7 - + + O + O       . . + + + % $ & & > , 2 2 2 7 9 r r t b Y V L R ( ( ( ) ( L I L H L M B f d i u u u f M @.*.*.%.",
"%.@.@.*.T j 7 - # + O .         . O + + % # % & & , 1 2 2 6 7 8 8 r c k M B H ~ I ( ) ( ( ( ^ L L L H B M f f u u u f M *.%.@.*.",
"@.@.@.*.T U 7 - + + + +         . O . + + @ $ & & & , 2 2 6 6 7 e w p s M B P W ( ( ( ( ( ( ^ L H B M M M f f u a u f f *.%.&.&.",
"*.*.*.%.Y j 7 - $ + O + O . . . . O . + + % $ & ; ; , 1 2 6 7 0 e r r d M B T I ~ ( ( ( ( ) ^ ^ L N V B M f f u u i c M @.*.*.&.",
"%.@.%.*.Y k 7 ; @ + + . . O     O . + + $ # % $ * 1 , 2 2 6 7 7 8 r a a M B H P ( ( ( ( ( ( I L L B H M M d d u u i i M *.@.@.*.",
"@.%.@.*.Y j 7 - @ @ + . .     . O O O + + % $ * * > , 2 2 6 7 7 r r t d M V H I ( ( ( ( ( I ^ ^ L H M M M d u u e u d M *.@.@.*.",
"*.*.*.%.Y U 7 - @ + + X .     . . O + + + $ $ * * ; , 1 2 6 7 6 8 r r x M B K ~ ( ( ( ( ( ( I L H B V M M f u u u u d M @.*.*.%.",
"%.@.@.*.T j 7 = # + + +     . . + O . @ $ @ % % & - , 2 4 6 7 7 8 t t s M N K L ~ I ( ( ( ( I ^ L B L M a f f u u u f M *.@.@.*.",
"@.@.%.*.T Y 7 = @ + + O O   .   . O + + + # $ % & < , 2 3 2 7 7 8 r p n N N T H ~ / ( ( ( ( I L L V V M M f a u u u i M *.@.&.&.",
"*.*.*.%.T j 7 * @ + + . O       . O + + + $ $ * * > , 2 2 6 7 8 e r w i M N H L I I ( ( ( ( I ^ H V M M a f u u u u d M @.*.*.&.",
"%.@.%.*.T j 7 * $ + + .       . . O O @ + # $ * * > ; 2 3 2 7 8 8 r r i N N H P ( I ( ( ( I I L V B V M f d u u e u d M *.@.@.*.",
"@.%.%.*.T j 7 > @ + + . . . . O . . O + $ # % % & > , 2 2 5 7 7 w t c a n V H L I ( ( ( ) ( I L V V V M M f a u p i c M *.@.@.*.",
"*.*.*.%.T j 7 = # + O O O . . . . O + + + $ $ * * - > 2 2 3 7 8 e p a s t F H I I I ( ( ( I I P P B M M f d f i u i d M @.*.*.&.",
"%.@.@.*.T A 7 = @ + + . O . . . O O O + + # $ & ; ; : 2 2 3 7 8 9 r e s S B H I ^ I I ( I ^ I L H L M M f d u u u u a M *.@.@.*.",
"@.@.%.*.R j 7 = + + O . . . . . . O . + $ # $ * * ; : 2 2 2 7 7 q w t a a G H R I ( ) ( ^ ^ I L V B f M d d d u u u i m *.@.@.*.",
"*.*.*.%.T j 8 - # + + O O   O   O O + + @ $ $ * * * : 2 3 5 7 8 0 r r s C G D P I ^ ( ( ( ( P L L V M M f d a u u u d f %.*.*.&.",
"%.@.%.*.R j 7 * @ + O +     X   . . O + @ @ $ * - * : 2 1 3 7 8 9 r r y M Z H R I ( ( ( ^ ^ I H L M B M f f f u u u f M *.@.@.*.",
"@.%.@.*.T C 6 - @ + O         X . O . + + $ $ & * : > , 2 5 7 7 8 r y a c V H H ^ ^ ( ^ ^ ( P L V M f f f a a u e u u M *.@.@.*.",
"*.*.*.%.R h 8 * @ + O @ X       O . O @ $ @ $ & * > : 2 2 2 7 7 9 r y s d Z B H P I ( ( I ( I L H V H M a d a a q u d f @.*.*.%.",
"%.@.@.*.R C 7 - @ + O + X     X O . + + O $ $ & ; ; , 2 2 5 7 7 9 r a j S F H I ^ ( ( ( / ( P H H B f M f f u u i i d m *.@.@.*.",
"@.@.%.*.R j 7 * # + + O     X   . + O + $ $ % & * ; , , 2 5 7 q 0 r e a y n V K ^ K ( ^ ( I L H B B V f a d u u u a a M *.@.@.*.",
"*.*.*.%.R k 7 * @ + +   .     X . . O + + $ % % * ; , 2 2 3 5 7 8 r e s v M H K I ( ( ^ ^ I L L H V V M f d a u p u d M @.*.*.%.",
"%.@.%.*.R A 7 = @ + O   O       O O + + # @ $ & & * > 2 2 3 5 9 0 r e a f G H H I ^ ( ( I I I L V B f f M d a u u u a m *.@.@.*.",
"@.%.@.*.E j 7 & @ + + O   .     . O + + + $ $ * * * : 2 2 5 7 7 9 r t s a n H J P I ^ ( ( I P L B B M f d i u u p u i M *.@.@.*.",
"*.*.*.@.E k 7 - # + O . . . .   O O O @ # @ $ * = - , : 2 3 7 7 w r e s v M V P P W ^ I ( I L L V B V f d d u u u u d M @.*.*.%.",
"%.@.@.*.E A 7 * @ + O O X   . . . . + @ + # $ & ; ; : 1 2 3 5 7 8 r r a a n H K W I ( I / I I L V B M f M d u u q u u M *.%.@.*.",
"@.@.@.*.E j 7 & + + + . X . . . . . O + + $ $ & * = : 2 2 2 5 7 8 t e a M M K H K ( ( ( I ( I P V V M f d i u u e u a M *.%.%.&.",
"*.*.*.%.E j 7 * $ + O . X       . O @ + @ $ % & ; * > , 2 3 5 7 9 e r s Z N F J I ) I I ^ I L L L B M f d d u u r a a M @.*.*.&.",
"%.@.%.*.E j 7 * # + + . X   .   . O O + # $ % % * > , : 2 2 5 7 9 t t y M n K K I I / ( ^ I L L L M M f M i u u e a d M *.@.@.*.",
"@.%.@.*.E l 7 * @ + + O X   . O . + + + + # $ & ; > > : 2 3 5 9 0 r w y v n V H K I ( ( ^ P I L V B f f f d u e e q a M *.@.@.*.",
"*.*.*.%.W g 7 & # + O +     .   O O . + @ $ $ & & > : , 2 2 7 8 8 r w s b M V H P ( ^ ( I I P L B B M f f i u u u u a M @.*.*.%."
};
